<svg width="2510" height="1068" viewBox="0 0 2510 1068" fill="none" xmlns="http://www.w3.org/2000/svg">
<rect width="2510" height="1068" fill="white"/>
<g filter="url(#filter0_d_80_2)">
<path fill-rule="evenodd" clip-rule="evenodd" d="M733.04 162.137C760.572 115.867 746.712 54.99 696.687 35.0798C626.553 7.16662 550.966 -4.46568 475.296 1.54079C367.596 10.0897 265.288 53.9288 183.106 126.744C100.923 199.559 43.1086 297.593 17.9884 406.725C-7.1317 515.857 1.73911 630.456 43.3232 734.016C84.9074 837.576 157.059 924.752 249.385 982.989C341.712 1041.23 449.449 1067.52 557.08 1058.08C664.711 1048.64 766.68 1003.96 848.302 930.464C906.48 878.08 952.181 812.987 982.427 740.322C1002.85 691.255 969.822 639.193 918.138 626.805C865.219 614.121 813.317 648.475 786.574 695.868C769.265 726.543 747.163 754.28 720.977 777.858C670.458 823.346 607.344 851.003 540.727 856.845C474.109 862.687 407.426 846.414 350.28 810.368C293.135 774.322 248.477 720.365 222.739 656.267C197.001 592.169 191.51 521.238 207.058 453.691C222.606 386.145 258.39 325.467 309.257 280.398C360.123 235.33 423.447 208.196 490.107 202.904C522.331 200.346 554.53 202.957 585.623 210.461C640.546 223.717 704.148 210.692 733.04 162.137ZM399.238 745.76C372.535 766.918 331.89 766.486 308.453 744.796C285.017 723.105 287.665 688.369 314.367 667.211C341.069 646.052 381.715 646.484 405.151 668.175C428.588 689.866 425.94 724.602 399.238 745.76ZM889.039 371.691C922.633 379.677 959.959 357.336 972.409 321.791C984.859 286.245 967.719 250.956 934.126 242.97C900.532 234.984 863.206 257.326 850.756 292.871C838.306 328.416 855.446 363.705 889.039 371.691Z" fill="url(#paint0_linear_80_2)"/>
</g>
<path d="M543.177 357.291C542.525 329.879 519.931 307.166 493.376 312.7C465.927 318.421 439.82 329.154 416.465 344.489C379.623 368.679 351.281 403.233 335.023 443.782C318.766 484.331 315.323 529.054 325.129 572.294C334.936 615.535 357.552 655.352 390.117 686.709C422.682 718.066 463.735 739.556 508.082 748.462C552.43 757.367 598.081 753.287 639.263 736.738C680.445 720.189 715.308 691.914 739.444 655.489C754.483 632.793 764.936 607.567 770.426 581.127C775.98 554.38 753.031 531.945 725.831 531.75L719.864 531.707C692.052 531.507 670.742 555.346 659.445 580.782C656.875 586.569 653.817 592.156 650.288 597.482C637.351 617.006 618.664 632.162 596.59 641.032C574.515 649.903 550.046 652.09 526.275 647.317C502.504 642.543 480.499 631.024 463.043 614.216C445.588 597.408 433.465 576.066 428.209 552.888C422.953 529.711 424.798 505.739 433.513 484.004C442.227 462.269 457.418 443.747 477.166 430.781C482.932 426.996 489.01 423.733 495.328 421.016C520.764 410.073 543.911 388.201 543.245 360.173L543.177 357.291Z" fill="url(#paint1_linear_80_2)"/>
<path d="M547.108 585.029C499.8 576.92 468.691 527.56 493.288 484.86C504.909 464.687 518.705 445.704 534.447 428.345C570.961 388.078 616.528 358.106 666.134 341.726C715.739 325.347 767.46 323.195 815.606 335.507C863.752 347.819 906.457 374.118 939.021 411.511C971.586 448.903 992.747 495.939 1000.18 547.444C1007.17 595.923 1010.77 658.1 994.586 707.358C992.583 713.455 990.84 719.575 988.922 725.701C969.342 788.24 866.856 929.337 821.045 942.183C780.062 953.675 785.633 922.704 773.523 907.358C762.148 892.941 739.883 890.844 728.991 876.03V876.03C706.321 845.197 717.522 792.103 742.028 762.903C753.868 748.796 765.687 731.588 775.871 711.31C786.892 686.714 792.982 680.337 804.361 651.429C811.208 634.036 814.274 616.27 814.94 598.75C815.132 593.699 814.749 588.639 813.942 583.652C812.213 572.965 810.365 565.046 806.958 555.807C803.501 546.436 798.023 537.979 791.103 530.973C780.696 520.436 768.921 511.322 754.714 507.689C735.734 502.836 722.421 501.314 702.866 507.771C683.311 514.229 665.348 526.044 650.953 541.918V541.918C626.895 568.448 594.654 593.179 560.001 587.239L547.108 585.029Z" fill="url(#paint2_linear_80_2)"/>
<path d="M1255.02 375.886V333.674H1364.05V433.479C1353.45 443.732 1338.07 452.79 1317.91 460.651C1297.86 468.399 1277.52 472.272 1256.9 472.272C1230.69 472.272 1207.85 466.804 1188.37 455.866C1168.88 444.815 1154.24 429.092 1144.45 408.698C1134.65 388.19 1129.75 365.917 1129.75 341.877C1129.75 315.786 1135.22 292.601 1146.15 272.321C1157.09 252.041 1173.1 236.49 1194.18 225.666C1210.24 217.349 1230.24 213.19 1254.16 213.19C1285.27 213.19 1309.53 219.742 1326.96 232.844C1344.51 245.832 1355.79 263.833 1360.8 286.848L1310.56 296.247C1307.03 283.942 1300.36 274.258 1290.56 267.194C1280.88 260.017 1268.75 256.428 1254.16 256.428C1232.06 256.428 1214.46 263.435 1201.35 277.448C1188.37 291.462 1181.87 312.255 1181.87 339.826C1181.87 369.562 1188.48 391.893 1201.7 406.818C1214.91 421.63 1232.23 429.035 1253.65 429.035C1264.25 429.035 1274.84 426.984 1285.44 422.883C1296.15 418.667 1305.32 413.597 1312.95 407.673V375.886H1255.02ZM1456.51 468H1408.48V286.506H1453.09V312.312C1460.72 300.121 1467.56 292.089 1473.6 288.215C1479.75 284.341 1486.7 282.404 1494.45 282.404C1505.38 282.404 1515.92 285.424 1526.06 291.462L1511.19 333.332C1503.1 328.091 1495.58 325.471 1488.63 325.471C1481.91 325.471 1476.22 327.351 1471.54 331.11C1466.87 334.756 1463.17 341.421 1460.44 351.105C1457.82 360.79 1456.51 381.07 1456.51 411.945V468ZM1582.8 341.877L1539.22 334.016C1544.12 316.47 1552.55 303.482 1564.51 295.051C1576.48 286.62 1594.25 282.404 1617.83 282.404C1639.25 282.404 1655.2 284.968 1665.69 290.095C1676.17 295.108 1683.52 301.545 1687.73 309.406C1692.06 317.154 1694.23 331.452 1694.23 352.302L1693.71 408.356C1693.71 424.307 1694.45 436.099 1695.93 443.732C1697.53 451.252 1700.43 459.341 1704.65 468H1657.14C1655.89 464.81 1654.35 460.082 1652.53 453.815C1651.73 450.967 1651.16 449.087 1650.82 448.176C1642.61 456.151 1633.84 462.132 1624.5 466.12C1615.16 470.108 1605.19 472.102 1594.59 472.102C1575.91 472.102 1561.15 467.032 1550.33 456.892C1539.62 446.752 1534.26 433.934 1534.26 418.439C1534.26 408.186 1536.71 399.071 1541.61 391.096C1546.51 383.007 1553.35 376.854 1562.12 372.639C1571.01 368.309 1583.77 364.549 1600.4 361.359C1622.85 357.144 1638.4 353.213 1647.06 349.567V344.782C1647.06 335.554 1644.78 329.003 1640.22 325.129C1635.66 321.141 1627.06 319.147 1614.42 319.147C1605.87 319.147 1599.21 320.856 1594.42 324.274C1589.64 327.578 1585.76 333.446 1582.8 341.877ZM1647.06 380.842C1640.91 382.893 1631.16 385.342 1617.83 388.19C1604.5 391.039 1595.79 393.83 1591.69 396.564C1585.42 401.008 1582.29 406.647 1582.29 413.483C1582.29 420.205 1584.79 426.016 1589.81 430.915C1594.82 435.814 1601.2 438.264 1608.95 438.264C1617.61 438.264 1625.87 435.415 1633.73 429.719C1639.54 425.389 1643.35 420.091 1645.18 413.825C1646.43 409.724 1647.06 401.919 1647.06 390.412V380.842ZM1908.19 468H1863.59V441.34C1856.18 451.708 1847.41 459.455 1837.27 464.582C1827.24 469.595 1817.1 472.102 1806.85 472.102C1786 472.102 1768.11 463.728 1753.19 446.979C1738.37 430.118 1730.97 406.647 1730.97 376.569C1730.97 345.808 1738.2 322.451 1752.67 306.501C1767.14 290.437 1785.43 282.404 1807.53 282.404C1827.81 282.404 1845.36 290.835 1860.17 307.697V217.463H1908.19V468ZM1780.02 373.322C1780.02 392.691 1782.69 406.704 1788.05 415.363C1795.8 427.896 1806.62 434.162 1820.52 434.162C1831.57 434.162 1840.97 429.491 1848.72 420.148C1856.47 410.692 1860.34 396.621 1860.34 377.937C1860.34 357.087 1856.58 342.105 1849.06 332.99C1841.54 323.762 1831.91 319.147 1820.18 319.147C1808.78 319.147 1799.21 323.705 1791.47 332.819C1783.83 341.82 1780.02 355.321 1780.02 373.322ZM1298.77 777.886L1347.81 793.438C1340.29 820.781 1327.76 841.118 1310.22 854.448C1292.79 867.664 1270.63 874.272 1243.74 874.272C1210.47 874.272 1183.13 862.936 1161.71 840.264C1140.29 817.477 1129.58 786.374 1129.58 746.953C1129.58 705.254 1140.34 672.897 1161.88 649.883C1183.41 626.755 1211.72 615.19 1246.81 615.19C1277.46 615.19 1302.36 624.248 1321.5 642.363C1332.89 653.073 1341.43 668.454 1347.13 688.506L1297.06 700.469C1294.1 687.48 1287.89 677.227 1278.43 669.707C1269.09 662.188 1257.69 658.428 1244.25 658.428C1225.68 658.428 1210.58 665.093 1198.96 678.423C1187.45 691.753 1181.7 713.343 1181.7 743.193C1181.7 774.867 1187.4 797.425 1198.79 810.869C1210.18 824.313 1225 831.035 1243.22 831.035C1256.67 831.035 1268.23 826.763 1277.92 818.218C1287.6 809.673 1294.55 796.229 1298.77 777.886ZM1379.94 776.689C1379.94 760.739 1383.87 745.301 1391.74 730.376C1399.6 715.451 1410.71 704.058 1425.06 696.196C1439.53 688.335 1455.65 684.404 1473.42 684.404C1500.88 684.404 1523.38 693.348 1540.93 711.235C1558.48 729.009 1567.25 751.51 1567.25 778.74C1567.25 806.198 1558.36 828.984 1540.59 847.1C1522.93 865.101 1500.65 874.102 1473.77 874.102C1457.13 874.102 1441.24 870.342 1426.09 862.822C1411.05 855.303 1399.6 844.308 1391.74 829.839C1383.87 815.256 1379.94 797.539 1379.94 776.689ZM1429.16 779.253C1429.16 797.254 1433.43 811.04 1441.98 820.61C1450.52 830.181 1461.06 834.966 1473.6 834.966C1486.13 834.966 1496.61 830.181 1505.04 820.61C1513.59 811.04 1517.86 797.14 1517.86 778.911C1517.86 761.138 1513.59 747.466 1505.04 737.896C1496.61 728.325 1486.13 723.54 1473.6 723.54C1461.06 723.54 1450.52 728.325 1441.98 737.896C1433.43 747.466 1429.16 761.252 1429.16 779.253ZM1770.1 870H1722.08V777.373C1722.08 757.777 1721.06 745.13 1719.01 739.434C1716.96 733.623 1713.59 729.123 1708.92 725.933C1704.37 722.743 1698.84 721.147 1692.35 721.147C1684.03 721.147 1676.57 723.426 1669.96 727.983C1663.35 732.541 1658.79 738.579 1656.29 746.099C1653.89 753.618 1652.7 767.518 1652.7 787.798V870H1604.67V688.506H1649.28V715.166C1665.12 694.658 1685.05 684.404 1709.09 684.404C1719.69 684.404 1729.37 686.341 1738.15 690.215C1746.92 693.975 1753.53 698.817 1757.97 704.741C1762.53 710.666 1765.66 717.388 1767.37 724.907C1769.19 732.427 1770.1 743.193 1770.1 757.207V870ZM1984.07 870H1936.05V777.373C1936.05 757.777 1935.02 745.13 1932.97 739.434C1930.92 733.623 1927.56 729.123 1922.89 725.933C1918.33 722.743 1912.8 721.147 1906.31 721.147C1897.99 721.147 1890.53 723.426 1883.92 727.983C1877.31 732.541 1872.76 738.579 1870.25 746.099C1867.86 753.618 1866.66 767.518 1866.66 787.798V870H1818.64V688.506H1863.24V715.166C1879.08 694.658 1899.02 684.404 1923.06 684.404C1933.65 684.404 1943.34 686.341 1952.11 690.215C1960.88 693.975 1967.49 698.817 1971.94 704.741C1976.49 710.666 1979.63 717.388 1981.33 724.907C1983.16 732.427 1984.07 743.193 1984.07 757.207V870ZM2138.05 812.236L2185.9 820.269C2179.75 837.814 2170.01 851.201 2156.68 860.43C2143.46 869.544 2126.88 874.102 2106.95 874.102C2075.39 874.102 2052.03 863.791 2036.88 843.169C2024.91 826.649 2018.93 805.799 2018.93 780.62C2018.93 750.542 2026.79 727.015 2042.52 710.039C2058.24 692.949 2078.12 684.404 2102.16 684.404C2129.16 684.404 2150.47 693.348 2166.08 711.235C2181.68 729.009 2189.15 756.296 2188.46 793.096H2068.15C2068.49 807.337 2072.37 818.446 2079.77 826.421C2087.18 834.282 2096.41 838.213 2107.46 838.213C2114.98 838.213 2121.3 836.162 2126.43 832.061C2131.55 827.959 2135.43 821.351 2138.05 812.236ZM2140.78 763.701C2140.44 749.801 2136.85 739.263 2130.02 732.085C2123.18 724.793 2114.86 721.147 2105.07 721.147C2094.58 721.147 2085.92 724.964 2079.09 732.598C2072.25 740.231 2068.89 750.599 2069.01 763.701H2140.78ZM2386.02 742.168L2338.68 750.713C2337.09 741.257 2333.44 734.136 2327.75 729.351C2322.16 724.565 2314.87 722.173 2305.87 722.173C2293.91 722.173 2284.34 726.331 2277.16 734.648C2270.1 742.852 2266.56 756.637 2266.56 776.006C2266.56 797.539 2270.15 812.749 2277.33 821.636C2284.62 830.522 2294.36 834.966 2306.55 834.966C2315.67 834.966 2323.13 832.402 2328.94 827.275C2334.75 822.035 2338.85 813.091 2341.25 800.444L2388.42 808.477C2383.52 830.124 2374.12 846.473 2360.22 857.524C2346.32 868.576 2327.69 874.102 2304.33 874.102C2277.79 874.102 2256.6 865.728 2240.76 848.979C2225.04 832.231 2217.17 809.046 2217.17 779.424C2217.17 749.46 2225.09 726.16 2240.93 709.526C2256.77 692.778 2278.19 684.404 2305.19 684.404C2327.29 684.404 2344.84 689.189 2357.82 698.76C2370.93 708.216 2380.33 722.686 2386.02 742.168ZM2505.82 688.506V726.787H2473.01V799.932C2473.01 814.743 2473.29 823.402 2473.86 825.908C2474.55 828.301 2475.97 830.295 2478.14 831.89C2480.42 833.485 2483.15 834.282 2486.34 834.282C2490.78 834.282 2497.22 832.744 2505.65 829.668L2509.75 866.924C2498.59 871.709 2485.94 874.102 2471.81 874.102C2463.15 874.102 2455.35 872.677 2448.4 869.829C2441.45 866.867 2436.32 863.107 2433.02 858.55C2429.83 853.879 2427.61 847.612 2426.35 839.751C2425.33 834.168 2424.82 822.889 2424.82 805.913V726.787H2402.77V688.506H2424.82V652.446L2473.01 624.419V688.506H2505.82Z" fill="black"/>
<defs>
<filter id="filter0_d_80_2" x="0" y="0" width="992.548" height="1067.96" filterUnits="userSpaceOnUse" color-interpolation-filters="sRGB">
<feFlood flood-opacity="0" result="BackgroundImageFix"/>
<feColorMatrix in="SourceAlpha" type="matrix" values="0 0 0 0 0 0 0 0 0 0 0 0 0 0 0 0 0 0 127 0" result="hardAlpha"/>
<feOffset dy="4"/>
<feGaussianBlur stdDeviation="2"/>
<feComposite in2="hardAlpha" operator="out"/>
<feColorMatrix type="matrix" values="0 0 0 0 0 0 0 0 0 0 0 0 0 0 0 0 0 0 0.25 0"/>
<feBlend mode="normal" in2="BackgroundImageFix" result="effect1_dropShadow_80_2"/>
<feBlend mode="normal" in="SourceGraphic" in2="effect1_dropShadow_80_2" result="shape"/>
</filter>
<linearGradient id="paint0_linear_80_2" x1="496.274" y1="-1.22985e-05" x2="809.007" y2="53.7792" gradientUnits="userSpaceOnUse">
<stop stop-color="#02A89B"/>
<stop offset="1" stop-color="#01423D"/>
</linearGradient>
<linearGradient id="paint1_linear_80_2" x1="325.101" y1="475.491" x2="382.903" y2="345.752" gradientUnits="userSpaceOnUse">
<stop stop-color="#02A89B"/>
<stop offset="1" stop-color="#01423D"/>
</linearGradient>
<linearGradient id="paint2_linear_80_2" x1="954.879" y1="762.989" x2="829.277" y2="853.236" gradientUnits="userSpaceOnUse">
<stop stop-color="#02A89B"/>
<stop offset="1" stop-color="#01423D"/>
</linearGradient>
</defs>
</svg>
