<svg width="6545" height="1253" viewBox="0 0 6545 1253" fill="none" xmlns="http://www.w3.org/2000/svg">
<rect width="6545" height="1253" fill="white"/>
<g filter="url(#filter0_d_85_2)">
<path fill-rule="evenodd" clip-rule="evenodd" d="M880.985 176.794C909.121 130.21 895.064 68.7835 844.972 47.5115C757.086 10.1901 661.42 -5.68076 565.643 1.8089C437.298 11.8454 315.377 63.313 217.44 148.799C119.503 234.285 50.6057 349.377 20.67 477.5C-9.26565 605.622 1.3057 740.162 50.8615 861.743C100.417 983.323 186.4 1085.67 296.426 1154.04C406.452 1222.41 534.842 1253.28 663.106 1242.2C791.369 1231.12 912.886 1178.66 1010.15 1092.38C1082.88 1027.87 1139.24 946.942 1175.15 856.561C1195.4 805.603 1161.39 751.934 1108.02 739.333L1076.94 731.995C1022.81 719.212 969.711 754.055 944.01 803.387C922.431 844.808 893.502 882.097 858.422 913.214C798.218 966.617 723.005 999.087 643.617 1005.95C564.229 1012.8 484.762 993.699 416.662 951.381C348.562 909.063 295.344 845.717 264.671 770.465C233.999 695.213 227.456 611.94 245.984 532.639C264.513 453.338 307.157 382.102 367.774 329.191C428.392 276.28 503.854 244.424 583.293 238.212C628.675 234.663 674.017 239.588 717.189 252.456C770.893 268.464 833.627 255.203 862.599 207.234L880.985 176.794ZM475.005 875.531C443.183 900.371 394.746 899.864 366.817 874.398C338.888 848.933 342.043 808.153 373.864 783.313C405.685 758.473 454.122 758.98 482.052 784.445C509.981 809.91 506.826 850.691 475.005 875.531ZM1058.7 436.37C1098.73 445.745 1143.22 419.516 1158.05 377.786C1172.89 336.055 1152.46 294.625 1112.43 285.25C1072.4 275.874 1027.92 302.103 1013.08 343.834C998.242 385.564 1018.67 426.994 1058.7 436.37Z" fill="url(#paint0_linear_85_2)"/>
</g>
<path d="M646.32 409.308C645.663 382.06 623.295 359.657 596.591 364.179C560.442 370.302 526.021 383.54 495.534 403.26C451.63 431.659 417.855 472.227 398.481 519.831C379.106 567.436 375.003 619.941 386.69 670.706C398.376 721.471 425.327 768.216 464.135 805.03C502.944 841.844 551.865 867.074 604.714 877.528C657.564 887.983 711.966 883.193 761.043 863.764C810.119 844.336 851.666 811.141 880.428 768.377C900.032 739.232 913.096 706.534 919.034 672.301C923.684 645.499 900.954 623.366 873.832 623.174L847.791 622.99C819.814 622.793 798.199 646.533 788.36 672.754C784.744 682.389 780 691.625 774.181 700.277C758.764 723.198 736.495 740.991 710.189 751.405C683.883 761.819 654.722 764.387 626.394 758.783C598.067 753.179 571.844 739.656 551.042 719.923C530.24 700.19 515.794 675.134 509.53 647.923C503.266 620.712 505.465 592.569 515.85 567.052C526.235 541.535 544.339 519.791 567.872 504.568C577.31 498.463 587.452 493.517 598.069 489.796C624.408 480.563 647.504 458.415 646.827 430.308L646.32 409.308Z" fill="url(#paint1_linear_85_2)"/>
<path d="M651.169 685.648C594.81 676.131 557.763 618.208 587.075 568.073C600.926 544.383 617.37 522.092 636.133 501.708C679.648 454.434 733.95 419.247 793.064 400.017C852.179 380.787 913.815 378.26 971.191 392.715C1028.57 407.169 1079.46 438.045 1118.26 481.944C1157.07 525.843 1182.29 581.065 1191.15 641.532C1199.56 698.991 1203.85 772.842 1183.92 830.929C1181.85 836.967 1180.1 843.027 1178.25 849.139C1156.27 921.686 1032.68 1089.76 977.672 1104.96C928.826 1118.45 935.474 1082.08 921.035 1064.07C907.479 1047.15 880.956 1044.69 867.981 1027.31C840.962 991.106 854.338 928.741 883.554 894.429C897.647 877.877 911.715 857.693 923.839 833.912C936.972 805.037 944.229 797.55 957.79 763.611C966.131 742.735 969.764 721.403 970.445 700.389C970.608 695.374 970.223 690.35 969.428 685.396C967.142 671.159 964.757 661.166 959.901 648.786C956.277 639.547 950.785 631.174 943.907 624.131C931.036 610.951 916.435 599.346 898.625 594.859C876.007 589.161 860.142 587.375 836.838 594.956C813.535 602.536 792.128 616.408 774.974 635.044C746.307 666.187 707.888 695.226 666.613 688.256L651.169 685.648Z" fill="url(#paint2_linear_85_2)"/>
<path d="M1807.61 770.453V673.969H2056.83V902.094C2032.61 925.531 1997.45 946.234 1951.36 964.203C1905.53 981.911 1859.04 990.766 1811.91 990.766C1752.01 990.766 1699.8 978.266 1655.27 953.266C1610.73 928.005 1577.27 892.068 1554.88 845.453C1532.48 798.578 1521.28 747.667 1521.28 692.719C1521.28 633.083 1533.78 580.089 1558.78 533.734C1583.78 487.38 1620.37 451.833 1668.55 427.094C1705.27 408.083 1750.97 398.578 1805.66 398.578C1876.75 398.578 1932.22 413.552 1972.06 443.5C2012.17 473.188 2037.95 514.333 2049.41 566.938L1934.56 588.422C1926.49 560.297 1911.26 538.161 1888.86 522.016C1866.72 505.609 1838.99 497.406 1805.66 497.406C1755.14 497.406 1714.9 513.422 1684.95 545.453C1655.27 577.484 1640.42 625.01 1640.42 688.031C1640.42 756 1655.53 807.042 1685.73 841.156C1715.94 875.01 1755.53 891.938 1804.48 891.938C1828.7 891.938 1852.92 887.25 1877.14 877.875C1901.62 868.24 1922.58 856.651 1940.03 843.109V770.453H1807.61ZM2268.16 981H2158.39V566.156H2260.34V625.141C2277.79 597.276 2293.42 578.917 2307.22 570.062C2321.28 561.208 2337.17 556.781 2354.88 556.781C2379.88 556.781 2403.96 563.682 2427.14 577.484L2393.16 673.188C2374.67 661.208 2357.48 655.219 2341.59 655.219C2326.23 655.219 2313.21 659.516 2302.53 668.109C2291.85 676.443 2283.39 691.677 2277.14 713.812C2271.15 735.948 2268.16 782.302 2268.16 852.875V981ZM2556.83 692.719L2457.22 674.75C2468.42 634.646 2487.69 604.958 2515.03 585.688C2542.38 566.417 2583 556.781 2636.91 556.781C2685.86 556.781 2722.32 562.641 2746.28 574.359C2770.24 585.818 2787.04 600.531 2796.67 618.5C2806.57 636.208 2811.52 668.891 2811.52 716.547L2810.34 844.672C2810.34 881.13 2812.04 908.083 2815.42 925.531C2819.07 942.719 2825.71 961.208 2835.34 981H2726.75C2723.89 973.708 2720.37 962.901 2716.2 948.578C2714.38 942.068 2713.08 937.771 2712.3 935.688C2693.55 953.917 2673.49 967.589 2652.14 976.703C2630.79 985.818 2608 990.375 2583.78 990.375C2541.07 990.375 2507.35 978.786 2482.61 955.609C2458.13 932.432 2445.89 903.135 2445.89 867.719C2445.89 844.281 2451.49 823.448 2462.69 805.219C2473.89 786.729 2489.51 772.667 2509.56 763.031C2529.88 753.135 2559.04 744.542 2597.06 737.25C2648.36 727.615 2683.91 718.63 2703.7 710.297V699.359C2703.7 678.266 2698.49 663.292 2688.08 654.438C2677.66 645.323 2658 640.766 2629.09 640.766C2609.56 640.766 2594.33 644.672 2583.39 652.484C2572.45 660.036 2563.6 673.448 2556.83 692.719ZM2703.7 781.781C2689.64 786.469 2667.38 792.068 2636.91 798.578C2606.44 805.089 2586.52 811.469 2577.14 817.719C2562.82 827.875 2555.66 840.766 2555.66 856.391C2555.66 871.755 2561.39 885.036 2572.84 896.234C2584.3 907.432 2598.89 913.031 2616.59 913.031C2636.39 913.031 2655.27 906.521 2673.23 893.5C2686.52 883.604 2695.24 871.495 2699.41 857.172C2702.27 847.797 2703.7 829.958 2703.7 803.656V781.781ZM3300.58 981H3198.62V920.062C3181.7 943.76 3161.65 961.469 3138.47 973.188C3115.55 984.646 3092.38 990.375 3068.94 990.375C3021.28 990.375 2980.4 971.234 2946.28 932.953C2912.43 894.411 2895.5 840.766 2895.5 772.016C2895.5 701.703 2912.04 648.318 2945.11 611.859C2978.18 575.141 3019.98 556.781 3070.5 556.781C3116.85 556.781 3156.96 576.052 3190.81 614.594V408.344H3300.58V981ZM3007.61 764.594C3007.61 808.865 3013.73 840.896 3025.97 860.688C3043.68 889.333 3068.42 903.656 3100.19 903.656C3125.45 903.656 3146.93 892.979 3164.64 871.625C3182.35 850.01 3191.2 817.849 3191.2 775.141C3191.2 727.484 3182.61 693.24 3165.42 672.406C3148.23 651.312 3126.23 640.766 3099.41 640.766C3073.36 640.766 3051.49 651.182 3033.78 672.016C3016.33 692.589 3007.61 723.448 3007.61 764.594ZM3776.36 770.453L3888.47 806C3871.28 868.5 3842.64 914.984 3802.53 945.453C3762.69 975.661 3712.04 990.766 3650.58 990.766C3574.54 990.766 3512.04 964.854 3463.08 913.031C3414.12 860.948 3389.64 789.854 3389.64 699.75C3389.64 604.438 3414.25 530.479 3463.47 477.875C3512.69 425.01 3577.4 398.578 3657.61 398.578C3727.66 398.578 3784.56 419.281 3828.31 460.688C3854.35 485.167 3873.89 520.323 3886.91 566.156L3772.45 593.5C3765.68 563.812 3751.49 540.375 3729.88 523.188C3708.52 506 3682.48 497.406 3651.75 497.406C3609.3 497.406 3574.8 512.641 3548.23 543.109C3521.93 573.578 3508.78 622.927 3508.78 691.156C3508.78 763.552 3521.8 815.115 3547.84 845.844C3573.89 876.573 3607.74 891.938 3649.41 891.938C3680.14 891.938 3706.57 882.172 3728.7 862.641C3750.84 843.109 3766.72 812.38 3776.36 770.453ZM3961.91 767.719C3961.91 731.26 3970.89 695.974 3988.86 661.859C4006.83 627.745 4032.22 601.703 4065.03 583.734C4098.1 565.766 4134.95 556.781 4175.58 556.781C4238.34 556.781 4289.77 577.224 4329.88 618.109C4369.98 658.734 4390.03 710.167 4390.03 772.406C4390.03 835.167 4369.72 887.25 4329.09 928.656C4288.73 969.802 4237.82 990.375 4176.36 990.375C4138.34 990.375 4102.01 981.781 4067.38 964.594C4033 947.406 4006.83 922.276 3988.86 889.203C3970.89 855.87 3961.91 815.375 3961.91 767.719ZM4074.41 773.578C4074.41 814.724 4084.17 846.234 4103.7 868.109C4123.23 889.984 4147.32 900.922 4175.97 900.922C4204.61 900.922 4228.57 889.984 4247.84 868.109C4267.38 846.234 4277.14 814.464 4277.14 772.797C4277.14 732.172 4267.38 700.922 4247.84 679.047C4228.57 657.172 4204.61 646.234 4175.97 646.234C4147.32 646.234 4123.23 657.172 4103.7 679.047C4084.17 700.922 4074.41 732.432 4074.41 773.578ZM4853.7 981H4743.94V769.281C4743.94 724.49 4741.59 695.583 4736.91 682.562C4732.22 669.281 4724.54 658.995 4713.86 651.703C4703.44 644.411 4690.81 640.766 4675.97 640.766C4656.96 640.766 4639.9 645.974 4624.8 656.391C4609.69 666.807 4599.28 680.609 4593.55 697.797C4588.08 714.984 4585.34 746.755 4585.34 793.109V981H4475.58V566.156H4577.53V627.094C4613.73 580.219 4659.3 556.781 4714.25 556.781C4738.47 556.781 4760.6 561.208 4780.66 570.062C4800.71 578.656 4815.81 589.724 4825.97 603.266C4836.39 616.807 4843.55 632.172 4847.45 649.359C4851.62 666.547 4853.7 691.156 4853.7 723.188V981ZM5342.77 981H5233V769.281C5233 724.49 5230.66 695.583 5225.97 682.562C5221.28 669.281 5213.6 658.995 5202.92 651.703C5192.51 644.411 5179.88 640.766 5165.03 640.766C5146.02 640.766 5128.96 645.974 5113.86 656.391C5098.76 666.807 5088.34 680.609 5082.61 697.797C5077.14 714.984 5074.41 746.755 5074.41 793.109V981H4964.64V566.156H5066.59V627.094C5102.79 580.219 5148.36 556.781 5203.31 556.781C5227.53 556.781 5249.67 561.208 5269.72 570.062C5289.77 578.656 5304.88 589.724 5315.03 603.266C5325.45 616.807 5332.61 632.172 5336.52 649.359C5340.68 666.547 5342.77 691.156 5342.77 723.188V981ZM5694.72 848.969L5804.09 867.328C5790.03 907.432 5767.77 938.031 5737.3 959.125C5707.09 979.958 5669.2 990.375 5623.62 990.375C5551.49 990.375 5498.1 966.807 5463.47 919.672C5436.12 881.911 5422.45 834.255 5422.45 776.703C5422.45 707.953 5440.42 654.177 5476.36 615.375C5512.3 576.312 5557.74 556.781 5612.69 556.781C5674.41 556.781 5723.1 577.224 5758.78 618.109C5794.46 658.734 5811.52 721.104 5809.95 805.219H5534.95C5535.73 837.771 5544.59 863.161 5561.52 881.391C5578.44 899.359 5599.54 908.344 5624.8 908.344C5641.98 908.344 5656.44 903.656 5668.16 894.281C5679.88 884.906 5688.73 869.802 5694.72 848.969ZM5700.97 738.031C5700.19 706.26 5691.98 682.172 5676.36 665.766C5660.73 649.099 5641.72 640.766 5619.33 640.766C5595.37 640.766 5575.58 649.49 5559.95 666.938C5544.33 684.385 5536.65 708.083 5536.91 738.031H5700.97ZM6261.52 688.812L6153.31 708.344C6149.67 686.729 6141.33 670.453 6128.31 659.516C6115.55 648.578 6098.89 643.109 6078.31 643.109C6050.97 643.109 6029.09 652.615 6012.69 671.625C5996.54 690.375 5988.47 721.885 5988.47 766.156C5988.47 815.375 5996.67 850.141 6013.08 870.453C6029.74 890.766 6052.01 900.922 6079.88 900.922C6100.71 900.922 6117.77 895.062 6131.05 883.344C6144.33 871.365 6153.7 850.922 6159.17 822.016L6266.98 840.375C6255.79 889.854 6234.3 927.224 6202.53 952.484C6170.76 977.745 6128.18 990.375 6074.8 990.375C6014.12 990.375 5965.68 971.234 5929.48 932.953C5893.55 894.672 5875.58 841.677 5875.58 773.969C5875.58 705.479 5893.68 652.224 5929.88 614.203C5966.07 575.922 6015.03 556.781 6076.75 556.781C6127.27 556.781 6167.38 567.719 6197.06 589.594C6227.01 611.208 6248.49 644.281 6261.52 688.812ZM6535.34 566.156V653.656H6460.34V820.844C6460.34 854.698 6460.99 874.49 6462.3 880.219C6463.86 885.688 6467.11 890.245 6472.06 893.891C6477.27 897.536 6483.52 899.359 6490.81 899.359C6500.97 899.359 6515.68 895.844 6534.95 888.812L6544.33 973.969C6518.81 984.906 6489.9 990.375 6457.61 990.375C6437.82 990.375 6419.98 987.12 6404.09 980.609C6388.21 973.839 6376.49 965.245 6368.94 954.828C6361.65 944.151 6356.57 929.828 6353.7 911.859C6351.36 899.099 6350.19 873.318 6350.19 834.516V653.656H6299.8V566.156H6350.19V483.734L6460.34 419.672V566.156H6535.34Z" fill="black"/>
<defs>
<filter id="filter0_d_85_2" x="0" y="0" width="1185.07" height="1252.4" filterUnits="userSpaceOnUse" color-interpolation-filters="sRGB">
<feFlood flood-opacity="0" result="BackgroundImageFix"/>
<feColorMatrix in="SourceAlpha" type="matrix" values="0 0 0 0 0 0 0 0 0 0 0 0 0 0 0 0 0 0 127 0" result="hardAlpha"/>
<feOffset dy="4"/>
<feGaussianBlur stdDeviation="2"/>
<feComposite in2="hardAlpha" operator="out"/>
<feColorMatrix type="matrix" values="0 0 0 0 0 0 0 0 0 0 0 0 0 0 0 0 0 0 0.25 0"/>
<feBlend mode="normal" in2="BackgroundImageFix" result="effect1_dropShadow_85_2"/>
<feBlend mode="normal" in="SourceGraphic" in2="effect1_dropShadow_85_2" result="shape"/>
</filter>
<linearGradient id="paint0_linear_85_2" x1="592.533" y1="-1.44385e-05" x2="966.02" y2="65.4045" gradientUnits="userSpaceOnUse">
<stop stop-color="#02A89B"/>
<stop offset="1" stop-color="#01423D"/>
</linearGradient>
<linearGradient id="paint1_linear_85_2" x1="386.656" y1="557.058" x2="453.836" y2="403.996" gradientUnits="userSpaceOnUse">
<stop stop-color="#02A89B"/>
<stop offset="1" stop-color="#01423D"/>
</linearGradient>
<linearGradient id="paint2_linear_85_2" x1="1137.16" y1="894.584" x2="989.013" y2="1002.63" gradientUnits="userSpaceOnUse">
<stop stop-color="#02A89B"/>
<stop offset="1" stop-color="#01423D"/>
</linearGradient>
</defs>
</svg>
