<svg width="1359" height="1252" viewBox="0 0 1359 1252" fill="none" xmlns="http://www.w3.org/2000/svg">
<g filter="url(#filter0_d_125_2)">
<path fill-rule="evenodd" clip-rule="evenodd" d="M880.836 176.773C908.979 130.187 894.92 68.7513 844.819 47.4829C756.955 10.1831 661.314 -5.67804 565.562 1.80832C437.235 11.8416 315.332 63.2924 217.409 148.751C119.487 234.209 50.599 349.264 20.6676 477.345C-9.26373 605.426 1.30609 739.922 50.8547 861.464C100.403 983.005 186.374 1085.32 296.384 1153.67C406.393 1222.02 534.766 1252.87 663.01 1241.79C791.255 1230.72 912.755 1178.27 1010.01 1092.02C1082.71 1027.54 1139.06 946.656 1174.97 856.319C1195.22 805.36 1161.21 751.688 1107.84 739.088L1076.79 731.759C1022.66 718.979 969.57 753.821 943.864 803.146C922.289 844.546 893.368 881.816 858.299 912.918C798.103 966.304 722.902 998.763 643.525 1005.62C564.148 1012.48 484.693 993.377 416.603 951.073C348.513 908.769 295.301 845.442 264.634 770.215C233.966 694.988 227.423 611.742 245.949 532.466C264.475 453.191 307.113 381.978 367.722 329.084C428.331 276.19 503.782 244.345 583.21 238.135C628.585 234.587 673.919 239.51 717.084 252.374C770.783 268.377 833.508 255.118 862.482 207.157L880.836 176.773ZM474.937 875.247C443.12 900.079 394.69 899.572 366.765 874.115C338.84 848.658 341.994 807.891 373.811 783.059C405.627 758.227 454.058 758.734 481.983 784.191C509.908 809.648 506.753 850.415 474.937 875.247ZM1058.55 436.228C1098.58 445.601 1143.05 419.38 1157.89 377.663C1172.72 335.946 1152.3 294.53 1112.27 285.157C1072.24 275.785 1027.77 302.005 1012.93 343.722C998.098 385.439 1018.52 426.856 1058.55 436.228Z" fill="#02A89B"/>
</g>
<path d="M646.228 410.36C645.571 383.115 623.204 360.713 596.501 365.236C560.359 371.357 525.945 384.59 495.463 404.303C451.565 432.693 417.795 473.247 398.424 520.837C379.052 568.426 374.95 620.914 386.634 671.662C398.319 722.411 425.267 769.141 464.069 805.943C502.872 842.745 551.786 867.966 604.628 878.417C657.469 888.869 711.864 884.08 760.934 864.658C810.003 845.235 851.544 812.051 880.302 769.302C899.9 740.169 912.962 707.485 918.901 673.268C923.552 646.467 900.824 624.337 873.702 624.146L847.682 623.962C819.702 623.764 798.085 647.507 788.24 673.728C784.626 683.354 779.885 692.58 774.07 701.223C758.655 724.137 736.389 741.925 710.087 752.335C683.785 762.746 654.629 765.313 626.305 759.711C597.981 754.109 571.762 740.59 550.963 720.863C530.164 701.137 515.72 676.089 509.457 648.887C503.194 621.685 505.393 593.551 515.776 568.042C526.16 542.533 544.261 520.796 567.791 505.578C577.224 499.477 587.36 494.534 597.972 490.815C624.312 481.581 647.411 459.43 646.733 431.323L646.228 410.36Z" fill="#02A89B"/>
<path d="M651.075 686.599C594.724 677.085 557.683 619.181 586.991 569.063C600.84 545.38 617.281 523.097 636.042 502.719C679.55 455.46 733.844 420.284 792.951 401.061C852.057 381.837 913.684 379.311 971.051 393.761C1028.42 408.211 1079.3 439.077 1118.1 482.961C1156.91 526.846 1182.12 582.05 1190.97 642.497C1199.39 699.937 1203.67 773.763 1183.75 831.831C1181.68 837.868 1179.93 843.928 1178.08 850.039C1156.1 922.564 1032.53 1090.58 977.532 1105.78C928.693 1119.26 935.339 1082.9 920.903 1064.9C907.348 1047.99 880.83 1045.53 867.856 1028.15V1028.15C840.841 991.959 854.216 929.613 883.427 895.312C897.519 878.766 911.585 858.588 923.706 834.815C936.837 805.949 944.094 798.464 957.652 764.537C965.992 743.669 969.624 722.344 970.306 701.338C970.469 696.322 970.083 691.299 969.288 686.346C967.003 672.116 964.619 662.126 959.765 649.752C956.14 640.514 950.648 632.142 943.769 625.1C930.9 611.925 916.302 600.324 898.496 595.84C875.881 590.143 860.019 588.358 836.718 595.936C813.418 603.514 792.014 617.381 774.863 636.011V636.011C746.2 667.145 707.787 696.174 666.517 689.206L651.075 686.599Z" fill="#02A89B"/>
<defs>
<filter id="filter0_d_125_2" x="0" y="0" width="1184.89" height="1252" filterUnits="userSpaceOnUse" color-interpolation-filters="sRGB">
<feFlood flood-opacity="0" result="BackgroundImageFix"/>
<feColorMatrix in="SourceAlpha" type="matrix" values="0 0 0 0 0 0 0 0 0 0 0 0 0 0 0 0 0 0 127 0" result="hardAlpha"/>
<feOffset dy="4"/>
<feGaussianBlur stdDeviation="2"/>
<feComposite in2="hardAlpha" operator="out"/>
<feColorMatrix type="matrix" values="0 0 0 0 0 0 0 0 0 0 0 0 0 0 0 0 0 0 0.25 0"/>
<feBlend mode="normal" in2="BackgroundImageFix" result="effect1_dropShadow_125_2"/>
<feBlend mode="normal" in="SourceGraphic" in2="effect1_dropShadow_125_2" result="shape"/>
</filter>
</defs>
</svg>
