<svg width="4476" height="1788" viewBox="0 0 4476 1788" fill="none" xmlns="http://www.w3.org/2000/svg">
<path d="M40 42C40 40.8955 40.8954 40 42 40H4434C4435.1 40 4436 40.8954 4436 42V1745.11C4436 1746.21 4435.1 1747.11 4434 1747.11H42C40.8954 1747.11 40 1746.21 40 1745.11V42Z" fill="white"/>
<path d="M42 41H4434V39H42V41ZM4435 42V1745.11H4437V42H4435ZM4434 1746.11H42V1748.11H4434V1746.11ZM41 1745.11V42H39V1745.11H41ZM42 1746.11C41.4477 1746.11 41 1745.66 41 1745.11H39C39 1746.77 40.3432 1748.11 42 1748.11V1746.11ZM4435 1745.11C4435 1745.66 4434.55 1746.11 4434 1746.11V1748.11C4435.66 1748.11 4437 1746.77 4437 1745.11H4435ZM4434 41C4434.55 41 4435 41.4477 4435 42H4437C4437 40.3431 4435.66 39 4434 39V41ZM42 39C40.3431 39 39 40.3432 39 42H41C41 41.4477 41.4477 41 42 41V39Z" fill="black" fill-opacity="0.1"/>
<g filter="url(#filter0_d_80_2)">
<path fill-rule="evenodd" clip-rule="evenodd" d="M1253.33 338.425C1282.96 291.198 1268.43 228.2 1217.41 205.713C1101.62 154.679 974.236 132.591 846.696 142.191C685.203 154.346 531.794 216.679 408.564 320.212C285.334 423.745 198.642 563.135 160.975 718.305C123.308 873.476 136.61 1036.42 198.964 1183.67C261.319 1330.91 369.508 1454.87 507.949 1537.67C646.391 1620.48 807.94 1657.86 969.33 1644.44C1130.72 1631.02 1283.62 1567.48 1406.01 1462.99C1502.57 1380.54 1576.21 1275.95 1620.87 1159.13C1640.69 1107.3 1606.32 1052.95 1552.22 1040.66L1463.21 1020.43C1409.61 1008.24 1357.16 1042.35 1333.48 1091.96C1305.52 1150.56 1265.31 1203.12 1215.09 1246C1139.34 1310.68 1044.7 1350 944.808 1358.31C844.917 1366.62 744.926 1343.48 659.239 1292.23C573.551 1240.98 506.587 1164.26 467.993 1073.12C429.399 981.98 421.167 881.127 444.48 785.085C467.794 689.043 521.452 602.768 597.725 538.687C673.997 474.605 768.949 436.025 868.905 428.501C935.76 423.469 1002.55 432.505 1064.96 454.577C1116.54 472.815 1177.3 459.586 1206.37 413.25L1253.33 338.425ZM732.649 1200.36C692.609 1230.45 631.662 1229.83 596.52 1198.99C561.378 1168.15 565.348 1118.76 605.387 1088.68C645.427 1058.59 706.373 1059.21 741.516 1090.05C776.658 1120.89 772.688 1170.28 732.649 1200.36ZM1467.09 668.492C1517.47 679.847 1573.44 648.081 1592.1 597.54C1610.77 547 1585.07 496.824 1534.7 485.469C1484.33 474.114 1428.36 505.88 1409.69 556.421C1391.02 606.961 1416.72 657.137 1467.09 668.492Z" fill="url(#paint0_linear_80_2)"/>
</g>
<path d="M947.925 625.811C947.253 598.987 925.333 577.244 898.607 580.61C848.393 586.934 800.472 603.671 758.481 629.815C703.237 664.209 660.739 713.34 636.361 770.995C611.983 828.65 606.82 892.239 621.525 953.721C636.23 1015.2 670.142 1071.82 718.973 1116.4C767.804 1160.99 829.36 1191.54 895.858 1204.21C962.356 1216.87 1030.81 1211.07 1092.56 1187.54C1154.31 1164.01 1206.59 1123.8 1242.78 1072.01C1269.64 1033.57 1286.75 990.02 1293.14 944.526C1296.88 917.927 1274.59 896.427 1247.67 896.244L1189.56 895.849C1161.16 895.656 1138.88 919.6 1130.31 946.643C1125.51 961.777 1118.39 976.226 1109.09 989.534C1089.69 1017.3 1061.67 1038.84 1028.57 1051.46C995.473 1064.07 958.781 1067.18 923.137 1060.39C887.493 1053.61 854.498 1037.23 828.324 1013.33C802.15 989.43 783.973 959.084 776.091 926.129C768.209 893.173 770.976 859.089 784.043 828.185C797.11 797.281 819.889 770.946 849.501 752.51C864.724 743.032 881.401 735.861 898.928 731.163C926.395 723.801 949.811 701.085 949.102 672.786L947.925 625.811Z" fill="url(#paint1_linear_80_2)"/>
<path d="M930.534 967.953C872.387 958.501 834.24 901.305 861.876 850.006C881.489 813.599 906.211 779.559 935.391 749.046C990.144 691.792 1058.47 649.176 1132.85 625.886C1207.23 602.597 1284.79 599.537 1356.98 617.043C1429.18 634.549 1493.21 671.943 1542.04 725.109C1590.87 778.276 1622.6 845.155 1633.74 918.388C1644.44 988.661 1649.83 1079.18 1623.91 1149.84C1621.74 1155.75 1619.94 1161.74 1618.15 1167.77C1592.32 1254.47 1434.9 1461.1 1365.14 1479.65C1303.66 1496 1312.05 1451.91 1293.86 1430.1C1276.8 1409.65 1243.46 1406.68 1227.15 1385.64C1193.14 1341.79 1210.06 1266.16 1246.86 1224.51C1264.54 1204.49 1282.19 1180.1 1297.4 1151.38C1313.93 1116.41 1323.06 1107.34 1340.12 1066.24C1350.85 1040.38 1355.39 1013.95 1356.1 987.937C1356.23 983.016 1355.84 978.091 1355.05 973.23C1351.88 953.822 1348.68 940.992 1341.44 923.954C1337.61 914.961 1332.05 906.774 1325.14 899.795C1308.34 882.822 1289.24 867.575 1265.68 861.862C1237.22 854.961 1217.25 852.798 1187.93 861.979C1158.61 871.16 1131.67 887.96 1110.09 910.53C1074.15 948.114 1025.83 983.442 974.132 975.039L930.534 967.953Z" fill="url(#paint2_linear_80_2)"/>
<path d="M1997.75 647.931V569.537H2200.24V754.889C2180.56 773.932 2151.99 790.753 2114.54 805.353C2077.3 819.741 2039.53 826.935 2001.24 826.935C1952.57 826.935 1910.15 816.778 1873.97 796.466C1837.78 775.942 1810.6 746.743 1792.4 708.868C1774.2 670.782 1765.1 629.417 1765.1 584.771C1765.1 536.318 1775.26 493.259 1795.57 455.597C1815.88 417.934 1845.61 389.052 1884.76 368.951C1914.59 353.505 1951.72 345.782 1996.16 345.782C2053.92 345.782 2098.99 357.949 2131.36 382.281C2163.95 406.402 2184.9 439.833 2194.21 482.574L2100.89 500.03C2094.34 477.179 2081.96 459.194 2063.76 446.075C2045.78 432.745 2023.24 426.08 1996.16 426.08C1955.11 426.08 1922.42 439.093 1898.09 465.118C1873.97 491.144 1861.91 529.758 1861.91 580.963C1861.91 636.188 1874.18 677.659 1898.72 705.377C1923.27 732.883 1955.43 746.637 1995.21 746.637C2014.88 746.637 2034.56 742.828 2054.24 735.211C2074.13 727.382 2091.16 717.966 2105.34 706.964V647.931H1997.75ZM2371.94 819H2282.75V481.939H2365.59V529.864C2379.77 507.224 2392.46 492.307 2403.68 485.113C2415.1 477.919 2428.01 474.322 2442.4 474.322C2462.71 474.322 2482.28 479.929 2501.11 491.144L2473.5 568.902C2458.48 559.169 2444.51 554.303 2431.61 554.303C2419.12 554.303 2408.54 557.794 2399.87 564.776C2391.19 571.547 2384.32 583.925 2379.24 601.91C2374.37 619.895 2371.94 657.558 2371.94 714.898V819ZM2606.49 584.771L2525.55 570.172C2534.65 537.587 2550.31 513.466 2572.53 497.809C2594.74 482.151 2627.75 474.322 2671.55 474.322C2711.33 474.322 2740.95 479.083 2760.42 488.604C2779.88 497.914 2793.53 509.869 2801.36 524.469C2809.4 538.857 2813.42 565.411 2813.42 604.132L2812.47 708.233C2812.47 737.856 2813.84 759.755 2816.59 773.932C2819.56 787.896 2824.95 802.919 2832.78 819H2744.55C2742.22 813.076 2739.36 804.295 2735.98 792.657C2734.5 787.368 2733.44 783.876 2732.8 782.184C2717.57 796.995 2701.28 808.103 2683.93 815.509C2666.58 822.914 2648.06 826.617 2628.38 826.617C2593.68 826.617 2566.28 817.201 2546.18 798.37C2526.29 779.539 2516.35 755.735 2516.35 726.959C2516.35 707.916 2520.9 690.989 2530 676.178C2539.09 661.155 2551.79 649.729 2568.08 641.9C2584.59 633.86 2608.28 626.878 2639.18 620.953C2680.86 613.124 2709.74 605.825 2725.82 599.054V590.167C2725.82 573.028 2721.59 560.862 2713.13 553.668C2704.66 546.262 2688.69 542.56 2665.2 542.56C2649.33 542.56 2636.95 545.733 2628.07 552.081C2619.18 558.217 2611.99 569.114 2606.49 584.771ZM2725.82 657.135C2714.4 660.943 2696.3 665.493 2671.55 670.782C2646.79 676.072 2630.61 681.256 2622.99 686.334C2611.35 694.586 2605.53 705.06 2605.53 717.755C2605.53 730.239 2610.19 741.03 2619.5 750.128C2628.81 759.226 2640.66 763.775 2655.04 763.775C2671.13 763.775 2686.47 758.486 2701.07 747.906C2711.86 739.866 2718.94 730.027 2722.33 718.39C2724.66 710.772 2725.82 696.279 2725.82 674.908V657.135ZM3210.78 819H3127.95V769.488C3114.19 788.743 3097.9 803.131 3079.07 812.652C3060.45 821.962 3041.62 826.617 3022.57 826.617C2983.85 826.617 2950.63 811.065 2922.92 779.962C2895.41 748.647 2881.66 705.06 2881.66 649.2C2881.66 592.071 2895.09 548.696 2921.96 519.073C2948.84 489.239 2982.8 474.322 3023.84 474.322C3061.51 474.322 3094.09 489.98 3121.6 521.295V353.717H3210.78V819ZM2972.75 643.17C2972.75 679.14 2977.72 705.165 2987.66 721.246C3002.05 744.521 3022.15 756.158 3047.96 756.158C3068.49 756.158 3085.94 747.483 3100.33 730.133C3114.72 712.571 3121.92 686.44 3121.92 651.739C3121.92 613.019 3114.93 585.195 3100.97 568.268C3087 551.129 3069.12 542.56 3047.33 542.56C3026.17 542.56 3008.4 551.023 2994.01 567.95C2979.83 584.666 2972.75 609.739 2972.75 643.17ZM2079 1247.93L2170.08 1276.81C2156.12 1327.59 2132.84 1365.36 2100.26 1390.12C2067.89 1414.66 2026.73 1426.93 1976.8 1426.93C1915.01 1426.93 1864.23 1405.88 1824.45 1363.78C1784.68 1321.46 1764.79 1263.69 1764.79 1190.48C1764.79 1113.04 1784.78 1052.95 1824.77 1010.21C1864.76 967.258 1917.34 945.782 1982.51 945.782C2039.43 945.782 2085.66 962.604 2121.21 996.246C2142.37 1016.14 2158.24 1044.7 2168.81 1081.94L2075.82 1104.16C2070.32 1080.04 2058.79 1060.99 2041.23 1047.03C2023.88 1033.06 2002.72 1026.08 1977.75 1026.08C1943.26 1026.08 1915.23 1038.46 1893.64 1063.21C1872.27 1087.97 1861.59 1128.07 1861.59 1183.5C1861.59 1242.32 1872.17 1284.22 1893.33 1309.19C1914.49 1334.15 1941.99 1346.64 1975.85 1346.64C2000.81 1346.64 2022.29 1338.7 2040.27 1322.83C2058.26 1306.96 2071.17 1282 2079 1247.93ZM2229.75 1245.71C2229.75 1216.09 2237.05 1187.42 2251.65 1159.7C2266.25 1131.98 2286.88 1110.82 2313.54 1096.22C2340.41 1081.62 2370.35 1074.32 2403.36 1074.32C2454.35 1074.32 2496.14 1090.93 2528.73 1124.15C2561.31 1157.16 2577.6 1198.95 2577.6 1249.52C2577.6 1300.51 2561.1 1342.83 2528.09 1376.47C2495.3 1409.9 2453.93 1426.62 2404 1426.62C2373.1 1426.62 2343.59 1419.63 2315.45 1405.67C2287.52 1391.71 2266.25 1371.29 2251.65 1344.42C2237.05 1317.33 2229.75 1284.43 2229.75 1245.71ZM2321.16 1250.47C2321.16 1283.9 2329.09 1309.5 2344.96 1327.28C2360.83 1345.05 2380.4 1353.94 2403.68 1353.94C2426.95 1353.94 2446.42 1345.05 2462.08 1327.28C2477.95 1309.5 2485.88 1283.69 2485.88 1249.83C2485.88 1216.83 2477.95 1191.44 2462.08 1173.66C2446.42 1155.89 2426.95 1147 2403.68 1147C2380.4 1147 2360.83 1155.89 2344.96 1173.66C2329.09 1191.44 2321.16 1217.04 2321.16 1250.47ZM2954.34 1419H2865.15V1246.98C2865.15 1210.59 2863.25 1187.1 2859.44 1176.52C2855.63 1165.73 2849.39 1157.37 2840.71 1151.45C2832.25 1145.52 2821.99 1142.56 2809.93 1142.56C2794.48 1142.56 2780.62 1146.79 2768.35 1155.25C2756.08 1163.72 2747.61 1174.93 2742.96 1188.9C2738.52 1202.86 2736.29 1228.68 2736.29 1266.34V1419H2647.11V1081.94H2729.95V1131.45C2759.36 1093.37 2796.39 1074.32 2841.03 1074.32C2860.71 1074.32 2878.69 1077.92 2894.99 1085.11C2911.28 1092.1 2923.55 1101.09 2931.8 1112.09C2940.27 1123.09 2946.08 1135.58 2949.26 1149.54C2952.64 1163.51 2954.34 1183.5 2954.34 1209.53V1419ZM3351.7 1419H3262.52V1246.98C3262.52 1210.59 3260.61 1187.1 3256.8 1176.52C3252.99 1165.73 3246.75 1157.37 3238.08 1151.45C3229.61 1145.52 3219.35 1142.56 3207.29 1142.56C3191.85 1142.56 3177.99 1146.79 3165.71 1155.25C3153.44 1163.72 3144.98 1174.93 3140.32 1188.9C3135.88 1202.86 3133.66 1228.68 3133.66 1266.34V1419H3044.47V1081.94H3127.31V1131.45C3156.72 1093.37 3193.75 1074.32 3238.39 1074.32C3258.07 1074.32 3276.06 1077.92 3292.35 1085.11C3308.64 1092.1 3320.91 1101.09 3329.17 1112.09C3337.63 1123.09 3343.45 1135.58 3346.62 1149.54C3350.01 1163.51 3351.7 1183.5 3351.7 1209.53V1419ZM3637.66 1311.72L3726.53 1326.64C3715.1 1359.23 3697.01 1384.09 3672.26 1401.23C3647.71 1418.15 3616.93 1426.62 3579.9 1426.62C3521.29 1426.62 3477.91 1407.47 3449.77 1369.17C3427.55 1338.49 3416.45 1299.77 3416.45 1253.01C3416.45 1197.15 3431.05 1153.46 3460.25 1121.93C3489.44 1090.19 3526.37 1074.32 3571.01 1074.32C3621.16 1074.32 3660.73 1090.93 3689.71 1124.15C3718.7 1157.16 3732.56 1207.83 3731.29 1276.18H3507.85C3508.49 1302.63 3515.68 1323.26 3529.43 1338.07C3543.19 1352.67 3560.33 1359.97 3580.85 1359.97C3594.82 1359.97 3606.56 1356.16 3616.08 1348.54C3625.6 1340.92 3632.8 1328.65 3637.66 1311.72ZM3642.74 1221.59C3642.11 1195.77 3635.44 1176.2 3622.75 1162.87C3610.05 1149.33 3594.6 1142.56 3576.41 1142.56C3556.94 1142.56 3540.86 1149.65 3528.17 1163.82C3515.47 1178 3509.23 1197.26 3509.44 1221.59H3642.74ZM4098.18 1181.6L4010.27 1197.47C4007.31 1179.9 4000.54 1166.68 3989.96 1157.79C3979.59 1148.91 3966.05 1144.46 3949.33 1144.46C3927.12 1144.46 3909.34 1152.19 3896.01 1167.63C3882.89 1182.87 3876.33 1208.47 3876.33 1244.44C3876.33 1284.43 3883 1312.68 3896.33 1329.18C3909.87 1345.68 3927.96 1353.94 3950.6 1353.94C3967.53 1353.94 3981.39 1349.18 3992.18 1339.65C4002.97 1329.92 4010.59 1313.31 4015.03 1289.83L4102.63 1304.74C4093.53 1344.94 4076.07 1375.31 4050.26 1395.83C4024.45 1416.36 3989.85 1426.62 3946.48 1426.62C3897.18 1426.62 3857.82 1411.07 3828.41 1379.96C3799.21 1348.86 3784.61 1305.8 3784.61 1250.79C3784.61 1195.14 3799.32 1151.87 3828.73 1120.98C3858.14 1089.87 3897.92 1074.32 3948.06 1074.32C3989.11 1074.32 4021.7 1083.21 4045.82 1100.98C4070.15 1118.54 4087.61 1145.42 4098.18 1181.6ZM4320.67 1081.94V1153.03H4259.73V1288.87C4259.73 1316.38 4260.26 1332.46 4261.32 1337.12C4262.59 1341.56 4265.23 1345.26 4269.25 1348.22C4273.49 1351.19 4278.56 1352.67 4284.49 1352.67C4292.74 1352.67 4304.69 1349.81 4320.35 1344.1L4327.97 1413.29C4307.23 1422.17 4283.75 1426.62 4257.51 1426.62C4241.43 1426.62 4226.94 1423.97 4214.03 1418.68C4201.12 1413.18 4191.6 1406.2 4185.46 1397.74C4179.54 1389.06 4175.41 1377.42 4173.09 1362.82C4171.18 1352.46 4170.23 1331.51 4170.23 1299.98V1153.03H4129.29V1081.94H4170.23V1014.97L4259.73 962.921V1081.94H4320.67Z" fill="black"/>
<rect x="40" y="4" width="59.375" height="30" rx="3" fill="white"/>
<rect x="40.5" y="4.5" width="58.375" height="29" rx="2.5" stroke="black" stroke-opacity="0.2"/>
<path d="M51.3438 16C51.2969 15.6042 51.1068 15.2969 50.7734 15.0781C50.4401 14.8594 50.0313 14.75 49.5469 14.75C49.1927 14.75 48.8828 14.8073 48.6172 14.9219C48.3542 15.0365 48.1484 15.194 48 15.3945C47.8542 15.5951 47.7813 15.8229 47.7813 16.0781C47.7813 16.2917 47.832 16.4753 47.9336 16.6289C48.0378 16.7799 48.1706 16.9062 48.332 17.0078C48.4935 17.1068 48.6628 17.1888 48.8398 17.2539C49.0169 17.3164 49.1797 17.3672 49.3281 17.4062L50.1406 17.625C50.349 17.6797 50.5807 17.7552 50.8359 17.8516C51.0938 17.9479 51.3398 18.0794 51.5742 18.2461C51.8112 18.4102 52.0065 18.6211 52.1602 18.8789C52.3138 19.1367 52.3906 19.4531 52.3906 19.8281C52.3906 20.2604 52.2773 20.651 52.0508 21C51.8268 21.349 51.4987 21.6263 51.0664 21.832C50.6367 22.0378 50.1146 22.1406 49.5 22.1406C48.9271 22.1406 48.431 22.0482 48.0117 21.8633C47.5951 21.6784 47.2669 21.4206 47.0273 21.0898C46.7904 20.7591 46.6563 20.375 46.625 19.9375H47.625C47.651 20.2396 47.7526 20.4896 47.9297 20.6875C48.1094 20.8828 48.3359 21.0286 48.6094 21.125C48.8854 21.2187 49.1823 21.2656 49.5 21.2656C49.8698 21.2656 50.2018 21.2057 50.4961 21.0859C50.7904 20.9635 51.0234 20.7943 51.1953 20.5781C51.3672 20.3594 51.4531 20.1042 51.4531 19.8125C51.4531 19.5469 51.3789 19.3307 51.2305 19.1641C51.082 18.9974 50.8867 18.862 50.6445 18.7578C50.4023 18.6536 50.1406 18.5625 49.8594 18.4844L48.875 18.2031C48.25 18.0234 47.7552 17.7669 47.3906 17.4336C47.026 17.1003 46.8438 16.6641 46.8438 16.125C46.8438 15.6771 46.9648 15.2865 47.207 14.9531C47.4518 14.6172 47.7799 14.3568 48.1914 14.1719C48.6055 13.9844 49.0677 13.8906 49.5781 13.8906C50.0938 13.8906 50.5521 13.9831 50.9531 14.168C51.3542 14.3503 51.6719 14.6003 51.9062 14.918C52.1432 15.2357 52.2682 15.5964 52.2813 16H51.3438ZM56.374 22.125C55.7959 22.125 55.2972 21.9974 54.8779 21.7422C54.4613 21.4844 54.1396 21.125 53.9131 20.6641C53.6891 20.2005 53.5771 19.6615 53.5771 19.0469C53.5771 18.4323 53.6891 17.8906 53.9131 17.4219C54.1396 16.9505 54.4548 16.5833 54.8584 16.3203C55.2646 16.0547 55.7386 15.9219 56.2803 15.9219C56.5928 15.9219 56.9014 15.974 57.2061 16.0781C57.5107 16.1823 57.7881 16.3516 58.0381 16.5859C58.2881 16.8177 58.4873 17.125 58.6357 17.5078C58.7842 17.8906 58.8584 18.362 58.8584 18.9219V19.3125H54.2334V18.5156H57.9209C57.9209 18.1771 57.8532 17.875 57.7178 17.6094C57.585 17.3437 57.3949 17.1341 57.1475 16.9805C56.9027 16.8268 56.6136 16.75 56.2803 16.75C55.9131 16.75 55.5954 16.8411 55.3271 17.0234C55.0615 17.2031 54.8571 17.4375 54.7139 17.7266C54.5706 18.0156 54.499 18.3255 54.499 18.6562V19.1875C54.499 19.6406 54.5771 20.0247 54.7334 20.3398C54.8923 20.6523 55.1123 20.8906 55.3936 21.0547C55.6748 21.2161 56.0016 21.2969 56.374 21.2969C56.6162 21.2969 56.835 21.263 57.0303 21.1953C57.2282 21.125 57.3988 21.0208 57.542 20.8828C57.6852 20.7422 57.7959 20.5677 57.874 20.3594L58.7646 20.6094C58.6709 20.9115 58.5133 21.1771 58.292 21.4062C58.0706 21.6328 57.7972 21.8099 57.4717 21.9375C57.1462 22.0625 56.7803 22.125 56.374 22.125ZM62.6982 22.125C62.1357 22.125 61.6514 21.9922 61.2451 21.7266C60.8389 21.4609 60.5264 21.0951 60.3076 20.6289C60.0889 20.1628 59.9795 19.6302 59.9795 19.0312C59.9795 18.4219 60.0915 17.8841 60.3154 17.418C60.542 16.9492 60.8571 16.5833 61.2607 16.3203C61.667 16.0547 62.141 15.9219 62.6826 15.9219C63.1045 15.9219 63.4847 16 63.8232 16.1562C64.1618 16.3125 64.4391 16.5312 64.6553 16.8125C64.8714 17.0937 65.0055 17.4219 65.0576 17.7969H64.1357C64.0654 17.5234 63.9092 17.2812 63.667 17.0703C63.4274 16.8568 63.1045 16.75 62.6982 16.75C62.3389 16.75 62.0238 16.8437 61.7529 17.0312C61.4847 17.2161 61.2751 17.4779 61.124 17.8164C60.9756 18.1523 60.9014 18.5469 60.9014 19C60.9014 19.4635 60.9743 19.8672 61.1201 20.2109C61.2686 20.5547 61.4769 20.8216 61.7451 21.0117C62.016 21.2018 62.3337 21.2969 62.6982 21.2969C62.9378 21.2969 63.1553 21.2552 63.3506 21.1719C63.5459 21.0885 63.7113 20.9688 63.8467 20.8125C63.9821 20.6562 64.0785 20.4687 64.1357 20.25H65.0576C65.0055 20.6042 64.8766 20.9232 64.6709 21.207C64.4678 21.4883 64.1982 21.7122 63.8623 21.8789C63.529 22.043 63.141 22.125 62.6982 22.125ZM69.0146 16V16.7812H65.9053V16H69.0146ZM66.8115 14.5625H67.7334V20.2812C67.7334 20.5417 67.7712 20.737 67.8467 20.8672C67.9248 20.9948 68.0238 21.0807 68.1436 21.125C68.266 21.1667 68.3949 21.1875 68.5303 21.1875C68.6318 21.1875 68.7152 21.1823 68.7803 21.1719C68.8454 21.1589 68.8975 21.1484 68.9365 21.1406L69.124 21.9687C69.0615 21.9922 68.9743 22.0156 68.8623 22.0391C68.7503 22.0651 68.6084 22.0781 68.4365 22.0781C68.1761 22.0781 67.9209 22.0221 67.6709 21.9102C67.4235 21.7982 67.2178 21.6276 67.0537 21.3984C66.8923 21.1693 66.8115 20.8802 66.8115 20.5312V14.5625ZM70.4014 22V16H71.3232V22H70.4014ZM70.8701 15C70.6904 15 70.5355 14.9388 70.4053 14.8164C70.2777 14.694 70.2139 14.5469 70.2139 14.375C70.2139 14.2031 70.2777 14.056 70.4053 13.9336C70.5355 13.8112 70.6904 13.75 70.8701 13.75C71.0498 13.75 71.2035 13.8112 71.3311 13.9336C71.4613 14.056 71.5264 14.2031 71.5264 14.375C71.5264 14.5469 71.4613 14.694 71.3311 14.8164C71.2035 14.9388 71.0498 15 70.8701 15ZM75.4492 22.125C74.9076 22.125 74.4323 21.9961 74.0234 21.7383C73.6172 21.4805 73.2995 21.1198 73.0703 20.6562C72.8438 20.1927 72.7305 19.651 72.7305 19.0312C72.7305 18.4062 72.8438 17.8607 73.0703 17.3945C73.2995 16.9284 73.6172 16.5664 74.0234 16.3086C74.4323 16.0508 74.9076 15.9219 75.4492 15.9219C75.9909 15.9219 76.4648 16.0508 76.8711 16.3086C77.2799 16.5664 77.5977 16.9284 77.8242 17.3945C78.0534 17.8607 78.168 18.4062 78.168 19.0312C78.168 19.651 78.0534 20.1927 77.8242 20.6562C77.5977 21.1198 77.2799 21.4805 76.8711 21.7383C76.4648 21.9961 75.9909 22.125 75.4492 22.125ZM75.4492 21.2969C75.8607 21.2969 76.1992 21.1914 76.4648 20.9805C76.7305 20.7695 76.9271 20.4922 77.0547 20.1484C77.1823 19.8047 77.2461 19.4323 77.2461 19.0312C77.2461 18.6302 77.1823 18.2565 77.0547 17.9102C76.9271 17.5638 76.7305 17.2839 76.4648 17.0703C76.1992 16.8568 75.8607 16.75 75.4492 16.75C75.0378 16.75 74.6992 16.8568 74.4336 17.0703C74.168 17.2839 73.9714 17.5638 73.8438 17.9102C73.7161 18.2565 73.6523 18.6302 73.6523 19.0312C73.6523 19.4323 73.7161 19.8047 73.8438 20.1484C73.9714 20.4922 74.168 20.7695 74.4336 20.9805C74.6992 21.1914 75.0378 21.2969 75.4492 21.2969ZM80.4971 18.3906V22H79.5752V16H80.4658V16.9375H80.5439C80.6846 16.6328 80.8981 16.388 81.1846 16.2031C81.471 16.0156 81.8408 15.9219 82.2939 15.9219C82.7002 15.9219 83.0557 16.0052 83.3604 16.1719C83.665 16.3359 83.902 16.5859 84.0713 16.9219C84.2406 17.2552 84.3252 17.6771 84.3252 18.1875V22H83.4033V18.25C83.4033 17.7786 83.2809 17.4115 83.0361 17.1484C82.7913 16.8828 82.4554 16.75 82.0283 16.75C81.734 16.75 81.471 16.8138 81.2393 16.9414C81.0101 17.069 80.8291 17.2552 80.6963 17.5C80.5635 17.7448 80.4971 18.0417 80.4971 18.3906ZM91.9004 14V22H90.9316V15.0156H90.8848L88.9316 16.3125V15.3281L90.9316 14H91.9004Z" fill="black"/>
<defs>
<filter id="filter0_d_80_2" x="136" y="140" width="1494.54" height="1515.11" filterUnits="userSpaceOnUse" color-interpolation-filters="sRGB">
<feFlood flood-opacity="0" result="BackgroundImageFix"/>
<feColorMatrix in="SourceAlpha" type="matrix" values="0 0 0 0 0 0 0 0 0 0 0 0 0 0 0 0 0 0 127 0" result="hardAlpha"/>
<feOffset dy="4"/>
<feGaussianBlur stdDeviation="2"/>
<feComposite in2="hardAlpha" operator="out"/>
<feColorMatrix type="matrix" values="0 0 0 0 0 0 0 0 0 0 0 0 0 0 0 0 0 0 0.25 0"/>
<feBlend mode="normal" in2="BackgroundImageFix" result="effect1_dropShadow_80_2"/>
<feBlend mode="normal" in="SourceGraphic" in2="effect1_dropShadow_80_2" result="shape"/>
</filter>
<linearGradient id="paint0_linear_80_2" x1="883.27" y1="140" x2="1353.73" y2="225.911" gradientUnits="userSpaceOnUse">
<stop stop-color="#02A89B"/>
<stop offset="1" stop-color="#01423D"/>
</linearGradient>
<linearGradient id="paint1_linear_80_2" x1="621.482" y1="816.081" x2="700.738" y2="628.477" gradientUnits="userSpaceOnUse">
<stop stop-color="#02A89B"/>
<stop offset="1" stop-color="#01423D"/>
</linearGradient>
<linearGradient id="paint2_linear_80_2" x1="1565.82" y1="1224.86" x2="1384.41" y2="1362.32" gradientUnits="userSpaceOnUse">
<stop stop-color="#02A89B"/>
<stop offset="1" stop-color="#01423D"/>
</linearGradient>
</defs>
</svg>
