<svg width="672" height="700" viewBox="0 0 672 700" fill="none" xmlns="http://www.w3.org/2000/svg">
<rect width="672" height="700" fill="white"/>
<g filter="url(#filter0_d_0_1)">
<path fill-rule="evenodd" clip-rule="evenodd" d="M611.176 347.368C613.237 354.175 614.638 361.206 615.39 368.387C608.98 422.565 588.885 480.189 558.974 521.323C522.276 571.791 470.747 608.403 412.223 625.592C353.699 642.781 291.383 639.607 234.751 616.551C178.12 593.495 130.272 551.82 98.4841 497.864C66.6962 443.907 52.7079 380.621 58.6463 317.63C64.5847 254.64 90.1249 195.391 131.383 148.894C172.641 102.398 227.359 71.1984 287.216 60.04C337.779 50.6142 389.671 55.925 437.236 75.102C451.651 80.9137 468.644 75.5121 475.47 61.549C481.99 48.2105 476.79 31.9839 463.147 26.128C404.703 1.04298 340.405 -6.24764 277.817 5.41973C206.527 18.7094 141.358 55.8685 92.2191 111.246C43.0806 166.623 12.6619 237.189 5.58925 312.211C-1.48342 387.234 15.1769 462.608 53.0364 526.87C90.8959 591.133 147.883 640.769 215.332 668.228C282.78 695.688 356.999 699.469 426.701 678.996C496.403 658.524 557.775 614.918 601.483 554.811C626.761 520.048 644.046 480.531 654.128 438.805C668.72 400.457 671.083 360.816 660.425 325.618C651.116 294.876 632.407 269.283 606.742 251.348C622.115 245.784 635.433 233.346 641.337 217.119C650.733 191.298 637.798 165.662 612.446 159.861C587.094 154.06 558.926 170.289 549.53 196.111C545.625 206.843 545.577 217.544 548.676 226.801C508.911 218.622 464.394 224.092 422.206 242.724C379.671 261.509 342.475 292.362 316.427 330.009C308.959 340.803 313.879 353.46 326.066 357.7C338.252 361.941 353.06 356.125 360.945 345.536C379.92 320.056 405.909 299.202 435.368 286.191C472.162 269.942 511.355 267.258 544.325 278.731C577.295 290.204 601.342 314.894 611.176 347.368ZM491.551 337.277C491.589 328.665 483.786 322.482 475.226 323.436C466.679 324.388 460.641 332.11 460.31 340.704C459.65 357.813 454.804 374.581 446.096 389.484C434.759 408.886 417.483 424.089 396.844 432.824C376.205 441.56 353.309 443.362 331.567 437.962C309.826 432.561 290.404 420.247 276.198 402.855C261.991 385.463 253.76 363.925 252.733 341.452C251.705 318.978 257.935 296.773 270.495 278.146C283.054 259.519 301.27 245.469 322.427 238.088C338.62 232.44 355.872 230.931 372.648 233.581C381.199 234.932 390.014 230.489 392.619 222.234C395.215 214.008 390.671 205.137 382.205 203.488C358.928 198.956 334.775 200.643 312.204 208.516C284.7 218.111 261.019 236.377 244.692 260.591C228.365 284.806 220.265 313.673 221.601 342.888C222.633 365.446 229.247 387.279 240.709 406.466C221.834 405.369 201.08 415.349 189.584 432.526C175.06 454.227 180.814 479.197 202.436 488.298C224.058 497.399 253.36 487.184 267.885 465.483C272.304 458.88 274.846 451.974 275.635 445.305C290.003 456.097 306.458 463.972 324.086 468.351C352.35 475.371 382.115 473.029 408.946 461.672C435.776 450.316 458.234 430.553 472.972 405.331C485.079 384.611 491.443 361.119 491.551 337.277Z" fill="url(#paint0_linear_0_1)"/>
</g>
<defs>
<filter id="filter0_d_0_1" x="0" y="0" width="671.023" height="700" filterUnits="userSpaceOnUse" color-interpolation-filters="sRGB">
<feFlood flood-opacity="0" result="BackgroundImageFix"/>
<feColorMatrix in="SourceAlpha" type="matrix" values="0 0 0 0 0 0 0 0 0 0 0 0 0 0 0 0 0 0 127 0" result="hardAlpha"/>
<feOffset dy="4"/>
<feGaussianBlur stdDeviation="2"/>
<feComposite in2="hardAlpha" operator="out"/>
<feColorMatrix type="matrix" values="0 0 0 0 0 0 0 0 0 0 0 0 0 0 0 0 0 0 0.25 0"/>
<feBlend mode="normal" in2="BackgroundImageFix" result="effect1_dropShadow_0_1"/>
<feBlend mode="normal" in="SourceGraphic" in2="effect1_dropShadow_0_1" result="shape"/>
</filter>
<linearGradient id="paint0_linear_0_1" x1="336.043" y1="0" x2="336.043" y2="692" gradientUnits="userSpaceOnUse">
<stop stop-color="#02A89B"/>
<stop offset="1" stop-color="#01423D"/>
</linearGradient>
</defs>
</svg>
