<svg width="987" height="473" viewBox="0 0 987 473" fill="none" xmlns="http://www.w3.org/2000/svg">
<path d="M90.4404 116.204V86.0527H168.321V157.342C160.753 164.666 149.767 171.136 135.362 176.751C121.039 182.285 106.513 185.052 91.7832 185.052C73.0658 185.052 56.749 181.146 42.833 173.333C28.917 165.439 18.4596 154.209 11.4609 139.642C4.46224 124.993 0.962891 109.083 0.962891 91.9121C0.962891 73.276 4.86914 56.7152 12.6816 42.2295C20.4941 27.7438 31.9281 16.6354 46.9834 8.9043C58.458 2.96354 72.7402 -0.00683594 89.8301 -0.00683594C112.047 -0.00683594 129.381 4.67253 141.832 14.0312C154.365 23.3086 162.421 36.1667 166.002 52.6055L130.113 59.3193C127.59 50.5303 122.83 43.613 115.831 38.5674C108.914 33.4404 100.247 30.877 89.8301 30.877C74.0423 30.877 61.4691 35.8818 52.1104 45.8916C42.833 55.9014 38.1943 70.7533 38.1943 90.4473C38.1943 111.688 42.9144 127.638 52.3545 138.299C61.7946 148.878 74.1644 154.168 89.4639 154.168C97.0322 154.168 104.601 152.703 112.169 149.773C119.819 146.762 126.37 143.141 131.822 138.909V116.204H90.4404ZM234.361 182H200.06V52.3613H231.92V70.7939C237.372 62.0863 242.255 56.349 246.568 53.582C250.963 50.8151 255.927 49.4316 261.461 49.4316C269.273 49.4316 276.801 51.5882 284.044 55.9014L273.424 85.8086C267.646 82.0651 262.275 80.1934 257.311 80.1934C252.509 80.1934 248.44 81.5361 245.104 84.2217C241.767 86.8258 239.122 91.5866 237.169 98.5039C235.297 105.421 234.361 119.907 234.361 141.961V182ZM324.571 91.9121L293.443 86.2969C296.943 73.7643 302.965 64.487 311.51 58.4648C320.055 52.4427 332.75 49.4316 349.596 49.4316C364.895 49.4316 376.288 51.2627 383.775 54.9248C391.262 58.5055 396.511 63.1035 399.522 68.7188C402.615 74.2526 404.161 84.4658 404.161 99.3584L403.795 139.397C403.795 150.791 404.324 159.214 405.382 164.666C406.521 170.037 408.596 175.815 411.607 182H377.672C376.777 179.721 375.678 176.344 374.376 171.868C373.806 169.834 373.399 168.491 373.155 167.84C367.296 173.536 361.03 177.809 354.356 180.657C347.683 183.506 340.562 184.93 332.994 184.93C319.648 184.93 309.109 181.308 301.378 174.065C293.728 166.823 289.903 157.667 289.903 146.6C289.903 139.275 291.653 132.765 295.152 127.068C298.652 121.29 303.535 116.896 309.801 113.885C316.148 110.792 325.263 108.107 337.145 105.828C353.176 102.817 364.285 100.009 370.47 97.4053V93.9873C370.47 87.3955 368.842 82.7161 365.587 79.9492C362.332 77.1009 356.188 75.6768 347.154 75.6768C341.051 75.6768 336.29 76.8975 332.872 79.3389C329.454 81.6989 326.687 85.89 324.571 91.9121ZM370.47 119.744C366.075 121.209 359.117 122.959 349.596 124.993C340.074 127.028 333.849 129.021 330.919 130.975C326.443 134.148 324.205 138.177 324.205 143.06C324.205 147.861 325.995 152.011 329.576 155.511C333.157 159.01 337.714 160.76 343.248 160.76C349.433 160.76 355.333 158.725 360.948 154.656C365.099 151.564 367.825 147.78 369.127 143.304C370.022 140.374 370.47 134.799 370.47 126.58V119.744ZM556.993 182H525.133V162.957C519.843 170.363 513.577 175.896 506.334 179.559C499.173 183.139 491.93 184.93 484.605 184.93C469.713 184.93 456.936 178.948 446.275 166.985C435.696 154.941 430.406 138.177 430.406 116.692C430.406 94.7197 435.574 78.0368 445.909 66.6436C456.244 55.1689 469.306 49.4316 485.094 49.4316C499.579 49.4316 512.112 55.4538 522.691 67.498V3.04492H556.993V182ZM465.44 114.373C465.44 128.208 467.353 138.217 471.178 144.402C476.712 153.354 484.443 157.83 494.371 157.83C502.265 157.83 508.979 154.493 514.513 147.82C520.047 141.066 522.813 131.015 522.813 117.669C522.813 102.776 520.128 92.0749 514.757 85.5645C509.386 78.9727 502.509 75.6768 494.127 75.6768C485.989 75.6768 479.153 78.932 473.619 85.4424C468.167 91.8714 465.44 101.515 465.44 114.373ZM121.69 403.204L156.725 414.312C151.354 433.844 142.402 448.37 129.869 457.892C117.418 467.332 101.59 472.052 82.3838 472.052C58.6208 472.052 39.0895 463.954 23.79 447.76C8.49056 431.484 0.84082 409.267 0.84082 381.109C0.84082 351.324 8.53125 328.212 23.9121 311.773C39.293 295.253 59.516 286.993 84.5811 286.993C106.472 286.993 124.254 293.463 137.926 306.402C146.064 314.052 152.167 325.038 156.236 339.361L120.47 347.906C118.354 338.629 113.919 331.305 107.164 325.934C100.491 320.562 92.3529 317.877 82.75 317.877C69.485 317.877 58.7021 322.638 50.4014 332.159C42.182 341.681 38.0723 357.102 38.0723 378.424C38.0723 401.048 42.1413 417.161 50.2793 426.764C58.4173 436.367 68.9967 441.168 82.0176 441.168C91.6204 441.168 99.8805 438.116 106.798 432.013C113.715 425.909 118.679 416.306 121.69 403.204ZM179.674 402.35C179.674 390.956 182.481 379.929 188.097 369.269C193.712 358.608 201.646 350.47 211.9 344.854C222.236 339.239 233.751 336.432 246.446 336.432C266.059 336.432 282.132 342.82 294.664 355.597C307.197 368.292 313.463 384.365 313.463 403.814C313.463 423.427 307.115 439.703 294.42 452.643C281.806 465.501 265.896 471.93 246.69 471.93C234.809 471.93 223.456 469.244 212.633 463.873C201.891 458.502 193.712 450.649 188.097 440.313C182.481 429.897 179.674 417.242 179.674 402.35ZM214.83 404.181C214.83 417.039 217.882 426.886 223.985 433.722C230.089 440.558 237.617 443.976 246.568 443.976C255.52 443.976 263.007 440.558 269.029 433.722C275.133 426.886 278.185 416.957 278.185 403.937C278.185 391.241 275.133 381.476 269.029 374.64C263.007 367.804 255.52 364.386 246.568 364.386C237.617 364.386 230.089 367.804 223.985 374.64C217.882 381.476 214.83 391.323 214.83 404.181ZM458.36 469H424.059V402.838C424.059 388.84 423.326 379.807 421.861 375.738C420.396 371.588 417.996 368.373 414.659 366.095C411.404 363.816 407.457 362.677 402.818 362.677C396.878 362.677 391.547 364.304 386.827 367.56C382.107 370.815 378.852 375.128 377.062 380.499C375.353 385.87 374.498 395.799 374.498 410.284V469H340.196V339.361H372.057V358.404C383.368 343.756 397.61 336.432 414.781 336.432C422.35 336.432 429.267 337.815 435.533 340.582C441.799 343.268 446.52 346.726 449.693 350.958C452.949 355.19 455.187 359.991 456.407 365.362C457.709 370.733 458.36 378.424 458.36 388.434V469ZM611.192 469H576.891V402.838C576.891 388.84 576.158 379.807 574.693 375.738C573.229 371.588 570.828 368.373 567.491 366.095C564.236 363.816 560.289 362.677 555.65 362.677C549.71 362.677 544.379 364.304 539.659 367.56C534.939 370.815 531.684 375.128 529.894 380.499C528.185 385.87 527.33 395.799 527.33 410.284V469H493.028V339.361H524.889V358.404C536.201 343.756 550.442 336.432 567.613 336.432C575.182 336.432 582.099 337.815 588.365 340.582C594.632 343.268 599.352 346.726 602.525 350.958C605.781 355.19 608.019 359.991 609.239 365.362C610.541 370.733 611.192 378.424 611.192 388.434V469ZM721.178 427.74L755.357 433.478C750.963 446.01 744.005 455.572 734.483 462.164C725.043 468.674 713.202 471.93 698.961 471.93C676.419 471.93 659.736 464.565 648.912 449.835C640.367 438.035 636.095 423.142 636.095 405.157C636.095 383.673 641.71 366.868 652.94 354.742C664.171 342.535 678.372 336.432 695.543 336.432C714.83 336.432 730.048 342.82 741.197 355.597C752.346 368.292 757.677 387.783 757.188 414.068H671.251C671.495 424.241 674.262 432.175 679.552 437.872C684.841 443.487 691.433 446.295 699.327 446.295C704.698 446.295 709.215 444.83 712.877 441.9C716.539 438.971 719.306 434.251 721.178 427.74ZM723.131 393.072C722.887 383.144 720.323 375.616 715.44 370.489C710.558 365.281 704.617 362.677 697.618 362.677C690.131 362.677 683.946 365.403 679.063 370.855C674.181 376.308 671.78 383.714 671.861 393.072H723.131ZM898.302 377.691L864.488 383.795C863.349 377.04 860.745 371.954 856.676 368.536C852.688 365.118 847.48 363.409 841.051 363.409C832.506 363.409 825.67 366.38 820.543 372.32C815.497 378.18 812.975 388.027 812.975 401.861C812.975 417.242 815.538 428.106 820.665 434.454C825.873 440.802 832.831 443.976 841.539 443.976C848.049 443.976 853.38 442.145 857.53 438.482C861.681 434.739 864.61 428.351 866.319 419.317L900.011 425.055C896.511 440.517 889.798 452.195 879.869 460.089C869.941 467.983 856.635 471.93 839.952 471.93C820.991 471.93 805.854 465.948 794.542 453.985C783.312 442.022 777.696 425.462 777.696 404.303C777.696 382.9 783.352 366.257 794.664 354.376C805.976 342.413 821.275 336.432 840.562 336.432C856.35 336.432 868.883 339.85 878.16 346.686C887.519 353.44 894.233 363.775 898.302 377.691ZM983.873 339.361V366.705H960.436V418.951C960.436 429.531 960.639 435.715 961.046 437.506C961.534 439.215 962.551 440.639 964.098 441.778C965.725 442.918 967.678 443.487 969.957 443.487C973.131 443.487 977.729 442.389 983.751 440.191L986.681 466.803C978.705 470.221 969.672 471.93 959.581 471.93C953.396 471.93 947.822 470.912 942.857 468.878C937.893 466.762 934.231 464.076 931.871 460.821C929.592 457.485 928.006 453.009 927.11 447.394C926.378 443.406 926.012 435.349 926.012 423.224V366.705H910.265V339.361H926.012V313.604L960.436 293.585V339.361H983.873Z" fill="black"/>
</svg>
