<svg width="6463" height="1252" viewBox="0 0 6463 1252" fill="none" xmlns="http://www.w3.org/2000/svg">
<rect width="6463" height="1252" fill="#F3F4F5"/>
<path d="M1725.61 729.453V632.969H1974.83V861.094C1950.61 884.531 1915.45 905.234 1869.36 923.203C1823.53 940.911 1777.04 949.766 1729.91 949.766C1670.01 949.766 1617.8 937.266 1573.27 912.266C1528.73 887.005 1495.27 851.068 1472.88 804.453C1450.48 757.578 1439.28 706.667 1439.28 651.719C1439.28 592.083 1451.78 539.089 1476.78 492.734C1501.78 446.38 1538.37 410.833 1586.55 386.094C1623.27 367.083 1668.97 357.578 1723.66 357.578C1794.75 357.578 1850.22 372.552 1890.06 402.5C1930.17 432.188 1955.95 473.333 1967.41 525.938L1852.56 547.422C1844.49 519.297 1829.26 497.161 1806.86 481.016C1784.72 464.609 1756.99 456.406 1723.66 456.406C1673.14 456.406 1632.9 472.422 1602.95 504.453C1573.27 536.484 1558.42 584.01 1558.42 647.031C1558.42 715 1573.53 766.042 1603.73 800.156C1633.94 834.01 1673.53 850.938 1722.48 850.938C1746.7 850.938 1770.92 846.25 1795.14 836.875C1819.62 827.24 1840.58 815.651 1858.03 802.109V729.453H1725.61ZM2186.16 940H2076.39V525.156H2178.34V584.141C2195.79 556.276 2211.42 537.917 2225.22 529.062C2239.28 520.208 2255.17 515.781 2272.88 515.781C2297.88 515.781 2321.96 522.682 2345.14 536.484L2311.16 632.188C2292.67 620.208 2275.48 614.219 2259.59 614.219C2244.23 614.219 2231.21 618.516 2220.53 627.109C2209.85 635.443 2201.39 650.677 2195.14 672.812C2189.15 694.948 2186.16 741.302 2186.16 811.875V940ZM2474.83 651.719L2375.22 633.75C2386.42 593.646 2405.69 563.958 2433.03 544.688C2460.38 525.417 2501 515.781 2554.91 515.781C2603.86 515.781 2640.32 521.641 2664.28 533.359C2688.24 544.818 2705.04 559.531 2714.67 577.5C2724.57 595.208 2729.52 627.891 2729.52 675.547L2728.34 803.672C2728.34 840.13 2730.04 867.083 2733.42 884.531C2737.07 901.719 2743.71 920.208 2753.34 940H2644.75C2641.89 932.708 2638.37 921.901 2634.2 907.578C2632.38 901.068 2631.08 896.771 2630.3 894.688C2611.55 912.917 2591.49 926.589 2570.14 935.703C2548.79 944.818 2526 949.375 2501.78 949.375C2459.07 949.375 2425.35 937.786 2400.61 914.609C2376.13 891.432 2363.89 862.135 2363.89 826.719C2363.89 803.281 2369.49 782.448 2380.69 764.219C2391.89 745.729 2407.51 731.667 2427.56 722.031C2447.88 712.135 2477.04 703.542 2515.06 696.25C2566.36 686.615 2601.91 677.63 2621.7 669.297V658.359C2621.7 637.266 2616.49 622.292 2606.08 613.438C2595.66 604.323 2576 599.766 2547.09 599.766C2527.56 599.766 2512.33 603.672 2501.39 611.484C2490.45 619.036 2481.6 632.448 2474.83 651.719ZM2621.7 740.781C2607.64 745.469 2585.38 751.068 2554.91 757.578C2524.44 764.089 2504.52 770.469 2495.14 776.719C2480.82 786.875 2473.66 799.766 2473.66 815.391C2473.66 830.755 2479.39 844.036 2490.84 855.234C2502.3 866.432 2516.89 872.031 2534.59 872.031C2554.39 872.031 2573.27 865.521 2591.23 852.5C2604.52 842.604 2613.24 830.495 2617.41 816.172C2620.27 806.797 2621.7 788.958 2621.7 762.656V740.781ZM3218.58 940H3116.62V879.062C3099.7 902.76 3079.65 920.469 3056.47 932.188C3033.55 943.646 3010.38 949.375 2986.94 949.375C2939.28 949.375 2898.4 930.234 2864.28 891.953C2830.43 853.411 2813.5 799.766 2813.5 731.016C2813.5 660.703 2830.04 607.318 2863.11 570.859C2896.18 534.141 2937.98 515.781 2988.5 515.781C3034.85 515.781 3074.96 535.052 3108.81 573.594V367.344H3218.58V940ZM2925.61 723.594C2925.61 767.865 2931.73 799.896 2943.97 819.688C2961.68 848.333 2986.42 862.656 3018.19 862.656C3043.45 862.656 3064.93 851.979 3082.64 830.625C3100.35 809.01 3109.2 776.849 3109.2 734.141C3109.2 686.484 3100.61 652.24 3083.42 631.406C3066.23 610.312 3044.23 599.766 3017.41 599.766C2991.36 599.766 2969.49 610.182 2951.78 631.016C2934.33 651.589 2925.61 682.448 2925.61 723.594ZM3694.36 729.453L3806.47 765C3789.28 827.5 3760.64 873.984 3720.53 904.453C3680.69 934.661 3630.04 949.766 3568.58 949.766C3492.54 949.766 3430.04 923.854 3381.08 872.031C3332.12 819.948 3307.64 748.854 3307.64 658.75C3307.64 563.438 3332.25 489.479 3381.47 436.875C3430.69 384.01 3495.4 357.578 3575.61 357.578C3645.66 357.578 3702.56 378.281 3746.31 419.688C3772.35 444.167 3791.89 479.323 3804.91 525.156L3690.45 552.5C3683.68 522.812 3669.49 499.375 3647.88 482.188C3626.52 465 3600.48 456.406 3569.75 456.406C3527.3 456.406 3492.8 471.641 3466.23 502.109C3439.93 532.578 3426.78 581.927 3426.78 650.156C3426.78 722.552 3439.8 774.115 3465.84 804.844C3491.89 835.573 3525.74 850.938 3567.41 850.938C3598.14 850.938 3624.57 841.172 3646.7 821.641C3668.84 802.109 3684.72 771.38 3694.36 729.453ZM3879.91 726.719C3879.91 690.26 3888.89 654.974 3906.86 620.859C3924.83 586.745 3950.22 560.703 3983.03 542.734C4016.1 524.766 4052.95 515.781 4093.58 515.781C4156.34 515.781 4207.77 536.224 4247.88 577.109C4287.98 617.734 4308.03 669.167 4308.03 731.406C4308.03 794.167 4287.72 846.25 4247.09 887.656C4206.73 928.802 4155.82 949.375 4094.36 949.375C4056.34 949.375 4020.01 940.781 3985.38 923.594C3951 906.406 3924.83 881.276 3906.86 848.203C3888.89 814.87 3879.91 774.375 3879.91 726.719ZM3992.41 732.578C3992.41 773.724 4002.17 805.234 4021.7 827.109C4041.23 848.984 4065.32 859.922 4093.97 859.922C4122.61 859.922 4146.57 848.984 4165.84 827.109C4185.38 805.234 4195.14 773.464 4195.14 731.797C4195.14 691.172 4185.38 659.922 4165.84 638.047C4146.57 616.172 4122.61 605.234 4093.97 605.234C4065.32 605.234 4041.23 616.172 4021.7 638.047C4002.17 659.922 3992.41 691.432 3992.41 732.578ZM4771.7 940H4661.94V728.281C4661.94 683.49 4659.59 654.583 4654.91 641.562C4650.22 628.281 4642.54 617.995 4631.86 610.703C4621.44 603.411 4608.81 599.766 4593.97 599.766C4574.96 599.766 4557.9 604.974 4542.8 615.391C4527.69 625.807 4517.28 639.609 4511.55 656.797C4506.08 673.984 4503.34 705.755 4503.34 752.109V940H4393.58V525.156H4495.53V586.094C4531.73 539.219 4577.3 515.781 4632.25 515.781C4656.47 515.781 4678.6 520.208 4698.66 529.062C4718.71 537.656 4733.81 548.724 4743.97 562.266C4754.39 575.807 4761.55 591.172 4765.45 608.359C4769.62 625.547 4771.7 650.156 4771.7 682.188V940ZM5260.77 940H5151V728.281C5151 683.49 5148.66 654.583 5143.97 641.562C5139.28 628.281 5131.6 617.995 5120.92 610.703C5110.51 603.411 5097.88 599.766 5083.03 599.766C5064.02 599.766 5046.96 604.974 5031.86 615.391C5016.76 625.807 5006.34 639.609 5000.61 656.797C4995.14 673.984 4992.41 705.755 4992.41 752.109V940H4882.64V525.156H4984.59V586.094C5020.79 539.219 5066.36 515.781 5121.31 515.781C5145.53 515.781 5167.67 520.208 5187.72 529.062C5207.77 537.656 5222.88 548.724 5233.03 562.266C5243.45 575.807 5250.61 591.172 5254.52 608.359C5258.68 625.547 5260.77 650.156 5260.77 682.188V940ZM5612.72 807.969L5722.09 826.328C5708.03 866.432 5685.77 897.031 5655.3 918.125C5625.09 938.958 5587.2 949.375 5541.62 949.375C5469.49 949.375 5416.1 925.807 5381.47 878.672C5354.12 840.911 5340.45 793.255 5340.45 735.703C5340.45 666.953 5358.42 613.177 5394.36 574.375C5430.3 535.312 5475.74 515.781 5530.69 515.781C5592.41 515.781 5641.1 536.224 5676.78 577.109C5712.46 617.734 5729.52 680.104 5727.95 764.219H5452.95C5453.73 796.771 5462.59 822.161 5479.52 840.391C5496.44 858.359 5517.54 867.344 5542.8 867.344C5559.98 867.344 5574.44 862.656 5586.16 853.281C5597.88 843.906 5606.73 828.802 5612.72 807.969ZM5618.97 697.031C5618.19 665.26 5609.98 641.172 5594.36 624.766C5578.73 608.099 5559.72 599.766 5537.33 599.766C5513.37 599.766 5493.58 608.49 5477.95 625.938C5462.33 643.385 5454.65 667.083 5454.91 697.031H5618.97ZM6179.52 647.812L6071.31 667.344C6067.67 645.729 6059.33 629.453 6046.31 618.516C6033.55 607.578 6016.89 602.109 5996.31 602.109C5968.97 602.109 5947.09 611.615 5930.69 630.625C5914.54 649.375 5906.47 680.885 5906.47 725.156C5906.47 774.375 5914.67 809.141 5931.08 829.453C5947.74 849.766 5970.01 859.922 5997.88 859.922C6018.71 859.922 6035.77 854.062 6049.05 842.344C6062.33 830.365 6071.7 809.922 6077.17 781.016L6184.98 799.375C6173.79 848.854 6152.3 886.224 6120.53 911.484C6088.76 936.745 6046.18 949.375 5992.8 949.375C5932.12 949.375 5883.68 930.234 5847.48 891.953C5811.55 853.672 5793.58 800.677 5793.58 732.969C5793.58 664.479 5811.68 611.224 5847.88 573.203C5884.07 534.922 5933.03 515.781 5994.75 515.781C6045.27 515.781 6085.38 526.719 6115.06 548.594C6145.01 570.208 6166.49 603.281 6179.52 647.812ZM6453.34 525.156V612.656H6378.34V779.844C6378.34 813.698 6378.99 833.49 6380.3 839.219C6381.86 844.688 6385.11 849.245 6390.06 852.891C6395.27 856.536 6401.52 858.359 6408.81 858.359C6418.97 858.359 6433.68 854.844 6452.95 847.812L6462.33 932.969C6436.81 943.906 6407.9 949.375 6375.61 949.375C6355.82 949.375 6337.98 946.12 6322.09 939.609C6306.21 932.839 6294.49 924.245 6286.94 913.828C6279.65 903.151 6274.57 888.828 6271.7 870.859C6269.36 858.099 6268.19 832.318 6268.19 793.516V612.656H6217.8V525.156H6268.19V442.734L6378.34 378.672V525.156H6453.34Z" fill="black"/>
<g filter="url(#filter0_d_85_2)">
<path fill-rule="evenodd" clip-rule="evenodd" d="M880.836 176.773C908.979 130.187 894.92 68.7513 844.819 47.4829C756.955 10.1831 661.314 -5.67804 565.562 1.80832C437.235 11.8416 315.332 63.2924 217.409 148.751C119.487 234.209 50.599 349.264 20.6676 477.345C-9.26373 605.426 1.30609 739.922 50.8547 861.464C100.403 983.005 186.374 1085.32 296.384 1153.67C406.393 1222.02 534.766 1252.87 663.01 1241.79C791.255 1230.72 912.755 1178.27 1010.01 1092.02C1082.71 1027.54 1139.06 946.656 1174.97 856.319C1195.22 805.36 1161.21 751.688 1107.84 739.088L1076.79 731.759C1022.66 718.979 969.57 753.821 943.864 803.146C922.289 844.546 893.368 881.816 858.299 912.918C798.103 966.304 722.902 998.763 643.525 1005.62C564.148 1012.48 484.693 993.377 416.603 951.073C348.513 908.769 295.301 845.442 264.634 770.215C233.966 694.988 227.423 611.742 245.949 532.466C264.475 453.191 307.113 381.978 367.722 329.084C428.331 276.19 503.782 244.345 583.21 238.135C628.585 234.587 673.919 239.51 717.084 252.374C770.783 268.377 833.508 255.118 862.482 207.157L880.836 176.773ZM474.937 875.247C443.12 900.079 394.69 899.572 366.765 874.115C338.84 848.658 341.994 807.891 373.811 783.059C405.627 758.227 454.058 758.734 481.983 784.191C509.908 809.648 506.753 850.415 474.937 875.247ZM1058.55 436.228C1098.58 445.601 1143.05 419.38 1157.89 377.663C1172.72 335.946 1152.3 294.53 1112.27 285.157C1072.24 275.785 1027.77 302.005 1012.93 343.722C998.098 385.439 1018.52 426.856 1058.55 436.228Z" fill="#02A89B"/>
</g>
<path d="M646.228 410.36C645.571 383.115 623.204 360.713 596.501 365.236C560.359 371.357 525.945 384.59 495.463 404.303C451.565 432.693 417.795 473.247 398.424 520.837C379.052 568.426 374.95 620.914 386.634 671.662C398.319 722.411 425.267 769.141 464.069 805.943C502.872 842.745 551.786 867.966 604.628 878.417C657.469 888.869 711.864 884.08 760.934 864.658C810.003 845.235 851.544 812.051 880.302 769.302C899.9 740.169 912.962 707.485 918.901 673.268C923.552 646.467 900.824 624.337 873.702 624.146L847.682 623.962C819.702 623.764 798.085 647.507 788.24 673.728C784.626 683.354 779.885 692.58 774.07 701.223C758.655 724.137 736.389 741.925 710.087 752.335C683.785 762.746 654.629 765.313 626.305 759.711C597.981 754.109 571.762 740.59 550.963 720.863C530.164 701.137 515.72 676.089 509.457 648.887C503.194 621.685 505.393 593.551 515.776 568.042C526.16 542.533 544.261 520.796 567.791 505.578C577.224 499.477 587.36 494.534 597.972 490.815C624.312 481.581 647.411 459.43 646.733 431.323L646.228 410.36Z" fill="#02A89B"/>
<path d="M651.075 686.599C594.724 677.085 557.683 619.181 586.991 569.063C600.84 545.38 617.281 523.097 636.042 502.719C679.55 455.46 733.844 420.284 792.951 401.06C852.057 381.837 913.684 379.311 971.051 393.761C1028.42 408.211 1079.3 439.077 1118.1 482.961C1156.91 526.846 1182.12 582.05 1190.97 642.497C1199.39 699.937 1203.67 773.763 1183.75 831.831C1181.68 837.868 1179.93 843.928 1178.08 850.039C1156.1 922.564 1032.53 1090.58 977.532 1105.78C928.693 1119.26 935.339 1082.9 920.903 1064.9C907.348 1047.99 880.83 1045.53 867.856 1028.15C840.841 991.959 854.216 929.613 883.427 895.312C897.519 878.766 911.585 858.588 923.706 834.815C936.837 805.949 944.094 798.464 957.652 764.537C965.992 743.669 969.624 722.344 970.306 701.338C970.469 696.322 970.083 691.299 969.288 686.346C967.003 672.116 964.619 662.126 959.765 649.752C956.14 640.514 950.648 632.142 943.769 625.1C930.9 611.925 916.302 600.324 898.496 595.84C875.881 590.143 860.019 588.358 836.718 595.936C813.418 603.514 792.014 617.381 774.863 636.011C746.2 667.145 707.787 696.174 666.517 689.206L651.075 686.599Z" fill="#02A89B"/>
<defs>
<filter id="filter0_d_85_2" x="0" y="0" width="1184.89" height="1252" filterUnits="userSpaceOnUse" color-interpolation-filters="sRGB">
<feFlood flood-opacity="0" result="BackgroundImageFix"/>
<feColorMatrix in="SourceAlpha" type="matrix" values="0 0 0 0 0 0 0 0 0 0 0 0 0 0 0 0 0 0 127 0" result="hardAlpha"/>
<feOffset dy="4"/>
<feGaussianBlur stdDeviation="2"/>
<feComposite in2="hardAlpha" operator="out"/>
<feColorMatrix type="matrix" values="0 0 0 0 0 0 0 0 0 0 0 0 0 0 0 0 0 0 0.25 0"/>
<feBlend mode="normal" in2="BackgroundImageFix" result="effect1_dropShadow_85_2"/>
<feBlend mode="normal" in="SourceGraphic" in2="effect1_dropShadow_85_2" result="shape"/>
</filter>
</defs>
</svg>
